STARTFONT 2.1
FONT -Monotype-Century Gothic-Regular-R-Normal--50-360-100-100-P-257-iso8859-4
SIZE 36 100 100
FONTBOUNDINGBOX 69 60 -10 -11

STARTPROPERTIES 24
FOUNDRY "Monotype"
FAMILY_NAME "Century Gothic"
WEIGHT_NAME "Regular"
SLANT "R"
SETWIDTH_NAME "Normal"
ADD_STYLE_NAME ""
PIXEL_SIZE 50
POINT_SIZE 360
RESOLUTION_X 100
RESOLUTION_Y 100
SPACING "P"
AVERAGE_WIDTH 257
CHARSET_REGISTRY "iso8859"
CHARSET_ENCODING "4"
FACE_NAME "Century Gothic ISO Latin4"
_DEC_DEVICE_FONTNAMES "PS=centurygothic-lat4"
COPYRIGHT "Copyright (c) 1993 Monotype Typography Ltd."
CAP_HEIGHT 45
X_HEIGHT 33
WEIGHT 10
QUAD_WIDTH 34
DEFAULT_CHAR 160
FONT_DESCENT 13
FONT_ASCENT 50
ENDPROPERTIES

CHARS 191

STARTCHAR space
ENCODING 32
SWIDTH 277 0
DWIDTH 14 0
BBX 0 0 0 0
BITMAP
ENDCHAR

STARTCHAR exclam
ENCODING 33
SWIDTH 295 0
DWIDTH 15 0
BBX 9 38 4 -1
BITMAP
3800
3800
3800
3800
3800
3800
3800
3800
3800
3800
3800
3800
3800
3800
3800
3800
3800
3800
3800
3800
3800
3800
3800
3800
3800
3800
3800
3800
0000
0000
0000
0000
3C00
7E00
7E00
7E00
7E00
3C00
ENDCHAR

STARTCHAR quotedbl
ENCODING 34
SWIDTH 309 0
DWIDTH 15 0
BBX 16 11 0 26
BITMAP
781C
781C
781C
781C
781C
781C
381C
301C
301C
301C
301C
ENDCHAR

STARTCHAR numbersign
ENCODING 35
SWIDTH 720 0
DWIDTH 36 0
BBX 30 37 3 0
BITMAP
001C0380
001C0300
001C0300
00180300
00180700
00380700
00380700
00380700
00380600
00300600
00300600
1FFFFFF8
1FFFFFF8
1FFFFFF8
00700E00
00700C00
00600C00
00601C00
00E01C00
00E01C00
00E01C00
00E01C00
3FFFFFE0
3FFFFFE0
3FFFFFE0
01C03800
01C03800
01C03800
01C03800
01C03000
01803000
01807000
03807000
03807000
03807000
03807000
03006000
ENDCHAR

STARTCHAR dollar
ENCODING 36
SWIDTH 554 0
DWIDTH 28 0
BBX 27 48 0 -9
BITMAP
00070000
00070000
00070000
003FC000
00FFF000
01FFF800
03E7FC00
07873E00
07871C00
07070800
0F070000
0F070000
0F070000
0F070000
07870000
07C70000
03E70000
01FF0000
00FF0000
003F8000
001FE000
0007F800
0007FC00
00077E00
00071F00
00070F80
00070780
00070380
000703C0
000703C0
000703C0
000703C0
080703C0
3C070380
1E070780
1F871F00
0FF77F00
07FFFE00
01FFF800
007FE000
00070000
00070000
00070000
00070000
00070000
00070000
00070000
00070000
ENDCHAR

STARTCHAR percent
ENCODING 37
SWIDTH 775 0
DWIDTH 39 0
BBX 41 40 -1 -2
BITMAP
00000001E000
00FC001FC000
03FFFFFFC000
0FFFFFFF8000
0F07FFC70000
1E03C00F0000
1C01E00E0000
3800E01C0000
3800E03C0000
3800E0380000
3800E0700000
3800E0F00000
3C01E0E00000
1E03C1C00000
0F0783C00000
0FFF83800000
03FE07000000
00F80F000000
00000E000000
00001C000000
00003C000000
000038000000
0000701FC000
0000F07FF000
0000E0FFF800
0001C1F0FC00
0003C1C03C00
000383C01E00
000703800E00
000703800E00
000E03800E00
001C03800E00
001C03C00E00
003803C01C00
007001E03C00
007000F87800
00E000FFF000
01E0003FE000
01C0000F8000
038000000000
ENDCHAR

STARTCHAR ampersand
ENCODING 38
SWIDTH 757 0
DWIDTH 38 0
BBX 35 35 3 -1
BITMAP
007F000000
01FFC00000
03FFE00000
03E1F00000
0780780000
0700780000
0700780000
0780780000
0780F00000
03C0F00000
03C1E00000
01E3C00000
00F7C00000
007F800000
007E000000
00FE000000
01FF000000
03FF800000
07C7C00000
0F83E00000
1F01F00000
1E00F81800
3C007C3C00
3C003E7C00
38001FF800
78000FF000
780007E000
78000FE000
78001FF000
3C007EF800
3C01FC7C00
1F07F83E00
1FFFE01F00
0FFF800F80
03FE000000
ENDCHAR

STARTCHAR quoteright
ENCODING 39
SWIDTH 351 0
DWIDTH 18 0
BBX 8 14 4 23
BITMAP
3C
3C
3C
3C
3C
3C
3C
0C
0C
0C
1C
18
38
10
ENDCHAR

STARTCHAR parenleft
ENCODING 40
SWIDTH 369 0
DWIDTH 18 0
BBX 12 48 5 -11
BITMAP
03C0
0380
0780
0780
0F00
0F00
0F00
0E00
1E00
1E00
1E00
1C00
3C00
3C00
3C00
3C00
3800
3800
3800
7800
7800
7800
7800
7800
7800
7800
7800
7800
7800
7800
7800
7800
3800
3800
3C00
3C00
3C00
3C00
3C00
1C00
1E00
1E00
1E00
0E00
0F00
0F00
0700
0780
ENDCHAR

STARTCHAR parenright
ENCODING 41
SWIDTH 369 0
DWIDTH 18 0
BBX 12 48 1 -11
BITMAP
1E00
0F00
0F00
0F00
0700
0780
0780
0380
0380
03C0
03C0
03C0
03C0
01C0
01C0
01C0
01E0
01E0
01E0
01E0
01E0
01E0
01E0
01E0
01E0
01E0
01E0
01E0
01E0
01C0
01C0
01C0
01C0
03C0
03C0
03C0
0380
0380
0780
0780
0700
0700
0F00
0F00
1E00
1E00
1E00
3C00
ENDCHAR

STARTCHAR asterisk
ENCODING 42
SWIDTH 425 0
DWIDTH 21 0
BBX 20 17 1 20
BITMAP
00E000
00E000
00E000
30E080
386380
7C67C0
1F6F00
07FC00
00F000
03F800
0F7E00
3E6FC0
3C63C0
30E180
00E000
00E000
00E000
ENDCHAR

STARTCHAR plus
ENCODING 43
SWIDTH 606 0
DWIDTH 30 0
BBX 27 25 2 5
BITMAP
000E0000
000E0000
000E0000
000E0000
000E0000
000E0000
000E0000
000E0000
000E0000
000E0000
000E0000
7FFFFFC0
7FFFFFC0
7FFFFFC0
000E0000
000E0000
000E0000
000E0000
000E0000
000E0000
000E0000
000E0000
000E0000
000E0000
000E0000
ENDCHAR

STARTCHAR comma
ENCODING 44
SWIDTH 277 0
DWIDTH 14 0
BBX 10 11 2 -4
BITMAP
0400
0700
0F00
0F00
0E00
1E00
1C00
3C00
3800
7000
3000
ENDCHAR

STARTCHAR minus
ENCODING 45
SWIDTH 606 0
DWIDTH 30 0
BBX 28 3 1 16
BITMAP
3FFFFFE0
3FFFFFE0
3FFFFFE0
ENDCHAR

STARTCHAR period
ENCODING 46
SWIDTH 277 0
DWIDTH 14 0
BBX 9 6 4 -1
BITMAP
3C00
7E00
7E00
7E00
7E00
3C00
ENDCHAR

STARTCHAR slash
ENCODING 47
SWIDTH 437 0
DWIDTH 22 0
BBX 22 42 0 -5
BITMAP
0000F0
0000F0
0000F0
0001E0
0001E0
0001C0
0003C0
0003C0
000380
000780
000780
000700
000F00
000F00
000E00
001E00
001E00
003C00
003C00
003800
007800
007800
007000
00F000
00F000
00E000
01E000
01E000
01C000
03C000
03C000
038000
078000
078000
0F0000
0F0000
0E0000
1E0000
1E0000
1C0000
3C0000
3C0000
ENDCHAR

STARTCHAR zero
ENCODING 48
SWIDTH 554 0
DWIDTH 28 0
BBX 28 38 0 -1
BITMAP
003FC000
00FFF000
01FFF800
03F0FC00
07C03E00
0F801E00
0F000F00
0E000700
1E000780
1C000780
1C000380
3C0003C0
3C0003C0
3C0003C0
380001C0
380001C0
380001C0
380001C0
380001C0
380001C0
380001C0
380001C0
380001C0
380001C0
3C0003C0
3C0003C0
3C0003C0
1C000380
1C000380
1E000780
1E000700
0F000F00
0F801E00
07C03E00
03F0FC00
01FFF800
00FFE000
003F8000
ENDCHAR

STARTCHAR one
ENCODING 49
SWIDTH 554 0
DWIDTH 28 0
BBX 12 36 6 0
BITMAP
0FE0
1FE0
3FE0
3FE0
01E0
01E0
01E0
01E0
01E0
01E0
01E0
01E0
01E0
01E0
01E0
01E0
01E0
01E0
01E0
01E0
01E0
01E0
01E0
01E0
01E0
01E0
01E0
01E0
01E0
01E0
01E0
01E0
01E0
01E0
01E0
01E0
ENDCHAR

STARTCHAR two
ENCODING 50
SWIDTH 554 0
DWIDTH 28 0
BBX 27 37 0 0
BITMAP
003FC000
00FFF000
01FFFC00
03F0FE00
07C03F00
0F000F00
0F000F80
1E000780
1C000780
1C000380
3C000380
3C000380
00000380
00000780
00000780
00000F00
00000F00
00001E00
00003C00
00007C00
0000F800
0000F000
0001E000
0003C000
00078000
000F0000
001E0000
003C0000
007C0000
00F80000
01F00000
03E00000
07C00000
0FFFFFC0
1FFFFFC0
1FFFFFC0
3FFFFFC0
ENDCHAR

STARTCHAR three
ENCODING 51
SWIDTH 554 0
DWIDTH 28 0
BBX 27 38 1 -1
BITMAP
003E0000
01FFC000
03FFE000
07FFF000
0F80F800
0F007C00
1E003C00
1E001E00
3C001E00
00001E00
00001E00
00001E00
00003C00
00003C00
0000F800
001FF000
001FE000
001FF000
001FF800
00007C00
00003E00
00000F00
00000F00
00000780
00000780
00000380
00000380
78000380
38000380
3C000780
3C000700
1E000F00
1F001E00
0F807E00
07FFFC00
03FFF000
01FFE000
001F0000
ENDCHAR

STARTCHAR four
ENCODING 52
SWIDTH 554 0
DWIDTH 28 0
BBX 28 37 0 0
BITMAP
00000400
00000C00
00001C00
00001C00
00003C00
00007C00
00007C00
0000FC00
0001FC00
0001FC00
0003FC00
0007BC00
000FBC00
000F3C00
001E3C00
003C3C00
003C3C00
00783C00
00F03C00
00F03C00
01E03C00
03C03C00
07C03C00
07803C00
0F003C00
1FFFFFC0
1FFFFFC0
3FFFFFC0
7FFFFFC0
00003C00
00003C00
00003C00
00003C00
00003C00
00003C00
00003C00
00003C00
ENDCHAR

STARTCHAR five
ENCODING 53
SWIDTH 554 0
DWIDTH 28 0
BBX 26 37 1 -1
BITMAP
00FFFF00
00FFFF00
00FFFF00
00E00000
00E00000
01E00000
01E00000
01C00000
01C00000
01C00000
03C00000
03C00000
03800000
03FFC000
03FFF000
03FFF800
07C1FC00
06003E00
00001E00
00000F00
00000F00
00000780
00000780
00000780
00000780
00000780
00000780
00000780
38000F00
3C000F00
3C001F00
1E003E00
1F007C00
0FC1F800
07FFF000
03FFE000
00FF8000
ENDCHAR

STARTCHAR six
ENCODING 54
SWIDTH 554 0
DWIDTH 28 0
BBX 25 38 2 -1
BITMAP
00008000
0000E000
0001E000
0003C000
0003C000
00078000
000F0000
001F0000
001E0000
003C0000
007C0000
00780000
00F00000
01F00000
01E00000
03C00000
07FF8000
07FFE000
0FFFF000
1FC1F800
1F007C00
3E003E00
3C001E00
3C000E00
38000F00
78000F00
78000F00
78000F00
78000F00
38000E00
3C001E00
3E003E00
1F007C00
0F80F800
0FFFF800
03FFE000
01FFC000
003E0000
ENDCHAR

STARTCHAR seven
ENCODING 55
SWIDTH 554 0
DWIDTH 28 0
BBX 26 37 2 -1
BITMAP
3FFFFF00
3FFFFF00
3FFFFE00
3FFFFE00
00003C00
00003C00
00007800
00007800
0000F000
0000F000
0001E000
0001C000
0003C000
00038000
00078000
00070000
000F0000
000E0000
001E0000
001C0000
003C0000
00380000
00780000
00700000
00F00000
01E00000
01E00000
03C00000
03C00000
07800000
07800000
0F000000
0E000000
1E000000
1C000000
3C000000
08000000
ENDCHAR

STARTCHAR eight
ENCODING 56
SWIDTH 554 0
DWIDTH 28 0
BBX 27 38 0 -1
BITMAP
001F0000
007FE000
01FFF000
03FFF800
07C07C00
0F803E00
0F001E00
0E000F00
1E000F00
1E000F00
1E000F00
1E000F00
0F001E00
0F001E00
07C03C00
03E0F800
01FFF000
00FFE000
03FFF800
07E0FC00
0F803E00
1E001F00
3E000F00
3C000780
38000780
78000380
78000380
78000380
78000380
78000780
3C000780
3C000F00
1E001F00
1F003E00
0FE0FC00
07FFF800
01FFF000
007F8000
ENDCHAR

STARTCHAR nine
ENCODING 57
SWIDTH 554 0
DWIDTH 28 0
BBX 25 38 1 -1
BITMAP
003E0000
01FFC000
03FFF000
07FFF800
0F80FC00
1F007C00
3E003E00
3C001E00
38000E00
78000F00
78000F00
78000F00
78000F00
78000F00
3C001E00
3C001E00
1E003E00
1F007C00
0FC1FC00
07FFF800
03FFF000
00FFF000
0001E000
0003C000
0007C000
00078000
000F0000
001F0000
001E0000
003C0000
007C0000
00780000
00F00000
01F00000
01E00000
03C00000
03C00000
00800000
ENDCHAR

STARTCHAR colon
ENCODING 58
SWIDTH 277 0
DWIDTH 14 0
BBX 9 29 4 -1
BITMAP
3C00
3E00
7E00
7E00
7E00
3C00
0000
0000
0000
0000
0000
0000
0000
0000
0000
0000
0000
0000
0000
0000
0000
0000
0000
3C00
7E00
7E00
7E00
7E00
3C00
ENDCHAR

STARTCHAR semicolon
ENCODING 59
SWIDTH 277 0
DWIDTH 14 0
BBX 11 31 2 -3
BITMAP
0F00
0F80
1F80
1F80
1F80
0F00
0000
0000
0000
0000
0000
0000
0000
0000
0000
0000
0000
0000
0000
0000
0000
0600
0780
0F00
0F00
0E00
1E00
1C00
3C00
3800
3000
ENDCHAR

STARTCHAR less
ENCODING 60
SWIDTH 606 0
DWIDTH 30 0
BBX 28 26 1 5
BITMAP
00000020
000001E0
000007E0
00001FE0
00007F80
0001FE00
000FF000
003FC000
00FF0000
03FC0000
0FF00000
3FC00000
3F000000
3E000000
3F800000
1FF00000
03FC0000
00FF0000
003FC000
000FF000
0003FC00
00007F80
00001FE0
000007E0
000001E0
00000060
ENDCHAR

STARTCHAR equal
ENCODING 61
SWIDTH 606 0
DWIDTH 30 0
BBX 28 14 1 11
BITMAP
3FFFFFE0
3FFFFFE0
3FFFFFE0
00000000
00000000
00000000
00000000
00000000
00000000
00000000
00000000
3FFFFFE0
3FFFFFE0
3FFFFFE0
ENDCHAR

STARTCHAR greater
ENCODING 62
SWIDTH 606 0
DWIDTH 30 0
BBX 28 26 1 5
BITMAP
20000000
38000000
3E000000
3F800000
0FF00000
03FC0000
00FF0000
003FC000
000FF000
0003FE00
0000FF80
00001FE0
000007E0
000007E0
00001FE0
00007F80
0001FE00
0007F000
003FC000
00FF0000
03FC0000
0FF00000
3FC00000
3E000000
38000000
20000000
ENDCHAR

STARTCHAR question
ENCODING 63
SWIDTH 591 0
DWIDTH 30 0
BBX 23 38 3 -1
BITMAP
00FF00
03FFC0
0FFFE0
1FC3F0
1E00F8
3C0078
3C003C
78003C
78003C
78003C
78003C
000078
0000F8
0003F0
001FE0
007F80
01FE00
07F800
0FE000
0F8000
1F0000
1E0078
1E0070
1E0070
1F00F0
0F81F0
07FFE0
07FFC0
01FF80
003C00
000000
000000
003C00
007C00
007E00
007E00
007C00
003C00
ENDCHAR

STARTCHAR at
ENCODING 64
SWIDTH 867 0
DWIDTH 43 0
BBX 39 38 2 -1
BITMAP
0001FF8000
000FFFF000
003F00FC00
0078000F00
00E0000780
03800001C0
03000000E0
0600000070
0C00000030
0C007C3838
1803FF3818
1807FFB818
300F83F80C
301E01F00C
201C00F00C
603C00F00C
603800700C
607800700C
607000600C
607000E008
607000E018
607000E018
607800E030
307801E030
307801C060
303C03C0C0
183F07C180
181FFFC700
0C0FF9FC00
0E01E1F000
0600000070
03000000E0
03C00003C0
00E0000780
0078001F00
001F007C00
000FFFF000
0000FFC000
ENDCHAR

STARTCHAR A
ENCODING 65
SWIDTH 740 0
DWIDTH 37 0
BBX 37 36 0 0
BITMAP
0000200000
0000300000
0000700000
0000780000
0000F80000
0000FC0000
0001FC0000
0001FE0000
0003DE0000
0003CF0000
00078F0000
0007870000
000F078000
000F078000
001E03C000
001E03C000
003C01E000
003C01E000
007800F000
007800F000
007FFFF800
00FFFFF800
00FFFFFC00
01FFFFFC00
01E0001E00
03C0001E00
03C0000E00
0780000F00
0780000F00
0F00000780
0F00000780
1E000003C0
1E000003C0
3C000001E0
3C000001E0
78000000F0
ENDCHAR

STARTCHAR B
ENCODING 66
SWIDTH 574 0
DWIDTH 29 0
BBX 24 36 3 0
BITMAP
7FF000
7FFE00
7FFF80
7FFFC0
7807E0
7801E0
7800F0
7800F0
7800F0
7800F0
7800F0
7800F0
7801E0
7803E0
780FC0
7FFF80
7FFE00
7FFFC0
7FFFE0
7803F8
7800F8
78007C
78003C
78001E
78001E
78001E
78001E
78001E
78003C
78003C
78007C
7801F8
7FFFF0
7FFFE0
7FFF80
7FFC00
ENDCHAR

STARTCHAR C
ENCODING 67
SWIDTH 813 0
DWIDTH 41 0
BBX 38 38 2 -1
BITMAP
00007F0000
0007FFF000
001FFFFC00
007FFFFF00
00FF003F80
01F8000FC0
03E00003E0
07C00001F0
0F800000E0
0F00000040
1F00000000
1E00000000
3C00000000
3C00000000
3C00000000
7800000000
7800000000
7800000000
7800000000
7800000000
7800000000
7800000000
7800000000
3800000000
3C00000000
3C00000000
1E00000000
1E00000000
1F00000000
0F80000040
07C00000F0
07E00001F0
03F00007E0
01FC001FC0
007FC0FF80
003FFFFE00
000FFFF800
0001FFC000
ENDCHAR

STARTCHAR D
ENCODING 68
SWIDTH 744 0
DWIDTH 37 0
BBX 33 36 3 0
BITMAP
7FFF000000
7FFFF80000
7FFFFE0000
7FFFFF8000
78007FC000
780007E000
780003F000
780000F800
7800007800
7800007C00
7800003C00
7800001E00
7800001E00
7800001E00
7800000F00
7800000F00
7800000F00
7800000F00
7800000F00
7800000F00
7800000F00
7800000F00
7800000F00
7800000E00
7800001E00
7800001E00
7800003C00
7800007C00
7800007800
780000F800
780003F000
78000FE000
7800FFC000
7FFFFF0000
7FFFFC0000
7FFFF00000
ENDCHAR

STARTCHAR E
ENCODING 69
SWIDTH 536 0
DWIDTH 27 0
BBX 23 36 3 0
BITMAP
7FFFFC
7FFFFC
7FFFFC
7FFFFC
780000
780000
780000
780000
780000
780000
780000
780000
780000
780000
780000
7FFFFC
7FFFFC
7FFFFC
7FFFFC
780000
780000
780000
780000
780000
780000
780000
780000
780000
780000
780000
780000
780000
7FFFFC
7FFFFC
7FFFFC
7FFFFC
ENDCHAR

STARTCHAR F
ENCODING 70
SWIDTH 485 0
DWIDTH 24 0
BBX 21 36 3 0
BITMAP
7FFFE0
7FFFE0
7FFFE0
7FFFE0
780000
780000
780000
780000
780000
780000
780000
780000
780000
780000
780000
7FFFE0
7FFFE0
7FFFE0
7FFFE0
780000
780000
780000
780000
780000
780000
780000
780000
780000
780000
780000
780000
780000
780000
780000
780000
780000
ENDCHAR

STARTCHAR G
ENCODING 71
SWIDTH 872 0
DWIDTH 44 0
BBX 41 38 2 -1
BITMAP
00007F000000
0003FFF00000
001FFFFC0000
003FFFFF0000
00FF007FC000
01FC000FE000
03F00003F000
07C00001F800
078000007000
0F8000002000
1F0000000000
1E0000000000
3E0000000000
3C0000000000
3C0000000000
380000000000
780000000000
780000000000
780000000000
780000000000
780000FFFE00
780000FFFE00
780000FFFE00
3C0000FFFE00
3C0000001E00
3C0000001C00
1E0000003C00
1E0000003C00
0F0000007800
0F8000007800
07C00000F000
03E00001F000
01F80003E000
00FE000FC000
007FC07F8000
001FFFFE0000
0007FFF80000
0000FFC00000
ENDCHAR

STARTCHAR H
ENCODING 72
SWIDTH 683 0
DWIDTH 34 0
BBX 28 36 3 0
BITMAP
780001E0
780001E0
780001E0
780001E0
780001E0
780001E0
780001E0
780001E0
780001E0
780001E0
780001E0
780001E0
780001E0
780001E0
780001E0
7FFFFFE0
7FFFFFE0
7FFFFFE0
7FFFFFE0
780001E0
780001E0
780001E0
780001E0
780001E0
780001E0
780001E0
780001E0
780001E0
780001E0
780001E0
780001E0
780001E0
780001E0
780001E0
780001E0
780001E0
ENDCHAR

STARTCHAR I
ENCODING 73
SWIDTH 226 0
DWIDTH 11 0
BBX 6 36 3 0
BITMAP
78
78
78
78
78
78
78
78
78
78
78
78
78
78
78
78
78
78
78
78
78
78
78
78
78
78
78
78
78
78
78
78
78
78
78
78
ENDCHAR

STARTCHAR J
ENCODING 74
SWIDTH 482 0
DWIDTH 24 0
BBX 20 37 1 -1
BITMAP
0001E0
0001E0
0001E0
0001E0
0001E0
0001E0
0001E0
0001E0
0001E0
0001E0
0001E0
0001E0
0001E0
0001E0
0001E0
0001E0
0001E0
0001E0
0001E0
0001E0
0001E0
0001E0
0001E0
0001E0
0001E0
0001E0
0001E0
0001E0
0001E0
0001E0
0001C0
3803C0
3C07C0
7F0F80
1FFF80
0FFF00
03FC00
ENDCHAR

STARTCHAR K
ENCODING 75
SWIDTH 591 0
DWIDTH 30 0
BBX 27 36 3 0
BITMAP
78001E00
78003C00
78007800
7801F000
7803E000
7807C000
780F8000
781F0000
783E0000
787C0000
78F80000
79F00000
7BE00000
7FC00000
7F800000
7E000000
7E000000
7F000000
7F800000
7FC00000
7BE00000
79F00000
78F80000
787C0000
783E0000
781F0000
780F8000
78078000
7803C000
7801E000
7801F000
7800F800
78007C00
78003E00
78001F00
78000F80
ENDCHAR

STARTCHAR L
ENCODING 76
SWIDTH 462 0
DWIDTH 23 0
BBX 20 36 3 0
BITMAP
780000
780000
780000
780000
780000
780000
780000
780000
780000
780000
780000
780000
780000
780000
780000
780000
780000
780000
780000
780000
780000
780000
780000
780000
780000
780000
780000
780000
780000
780000
780000
780000
7FFFE0
7FFFE0
7FFFE0
7FFFE0
ENDCHAR

STARTCHAR M
ENCODING 77
SWIDTH 919 0
DWIDTH 46 0
BBX 44 36 1 0
BITMAP
010000000800
010000000800
018000001C00
038000001C00
03C000003C00
03C000003C00
03E000007C00
03E000007C00
03F00000FC00
03F00000FE00
07F80001FE00
07F80001FE00
073C0003CE00
073C0003CE00
071E00078E00
071E00078E00
070F000F0E00
0F0F000F0F00
0F07800E0F00
0E07801E0F00
0E03C01C0700
0E03C03C0700
0E01E0380700
0E01E0780700
1E00F0700780
1E00F0F00780
1E0078E00780
1C0079E00380
1C003DC00380
1C003FC00380
1C001F800380
3C001F8003C0
3C000F0003C0
3C000F0003C0
3800060003C0
3800060001C0
ENDCHAR

STARTCHAR N
ENCODING 78
SWIDTH 740 0
DWIDTH 37 0
BBX 31 36 3 0
BITMAP
4000003C
6000003C
7000003C
7800003C
7C00003C
7E00003C
7F00003C
7F80003C
7F80003C
7FC0003C
7BE0003C
79F0003C
78F8003C
787C003C
783E003C
781F003C
780F803C
7807803C
7807C03C
7803E03C
7801F03C
7800F83C
78007C3C
78003E3C
78001F3C
78000F3C
780007BC
780007FC
780003FC
780001FC
780000FC
7800007C
7800003C
7800001C
7800000C
78000004
ENDCHAR

STARTCHAR O
ENCODING 79
SWIDTH 869 0
DWIDTH 43 0
BBX 40 38 2 -1
BITMAP
00007E0000
0007FFE000
001FFFF800
007FFFFE00
00FE007F00
01F8001F80
03E00007C0
07C00003E0
0F800001F0
0F000000F0
1E00000078
1E00000078
3C0000003C
3C0000003C
3C0000001C
380000001E
780000001E
780000001E
780000001E
780000001E
780000001E
780000001E
780000001E
3C0000001C
3C0000003C
3C0000003C
1E00000078
1E00000078
0F000000F0
0F800001F0
07C00003E0
03E00007C0
01F8001F80
00FE007F00
007FFFFE00
001FFFF800
0007FFE000
00007E0000
ENDCHAR

STARTCHAR P
ENCODING 80
SWIDTH 592 0
DWIDTH 30 0
BBX 25 36 3 0
BITMAP
7FFE0000
7FFFE000
7FFFF000
7FFFFC00
78007C00
78003E00
78001E00
78000F00
78000F00
78000F00
78000F00
78000F00
78000F00
78001E00
78003E00
7800FC00
7FFFF800
7FFFF000
7FFFE000
7FFC0000
78000000
78000000
78000000
78000000
78000000
78000000
78000000
78000000
78000000
78000000
78000000
78000000
78000000
78000000
78000000
78000000
ENDCHAR

STARTCHAR Q
ENCODING 81
SWIDTH 871 0
DWIDTH 44 0
BBX 40 40 2 -3
BITMAP
00007E0000
0007FFE000
001FFFF800
007FFFFE00
00FE007F00
01F8001F80
03E00007C0
07C00003E0
0F800001F0
0F000000F0
1E00000078
1E00000078
3C0000003C
3C0000003C
3C0000001C
380000001E
780000001E
780000001E
780000001E
780000001E
780000001E
780000001E
78000F001E
3C0007801C
3C0003C03C
3C0003E03C
1E0001F078
1E0000F078
0F000078F0
0F80003DF0
07C0003FE0
03E0001FC0
01F8001F80
00FE007F80
007FFFFFC0
001FFFFBE0
0007FFE1F0
00007E00F0
0000000078
000000007C
ENDCHAR

STARTCHAR R
ENCODING 82
SWIDTH 607 0
DWIDTH 30 0
BBX 26 36 3 0
BITMAP
7FFE0000
7FFFE000
7FFFF000
7FFFFC00
78007C00
78003E00
78001E00
78000F00
78000F00
78000F00
78000F00
78000F00
78001F00
78001E00
78003E00
7801FC00
7FFFF800
7FFFF000
7FFFC000
79E00000
78F00000
78780000
787C0000
783E0000
781E0000
780F0000
780F8000
7807C000
7803E000
7801E000
7800F000
7800F800
78007C00
78003C00
78001E00
78001F00
ENDCHAR

STARTCHAR S
ENCODING 83
SWIDTH 498 0
DWIDTH 25 0
BBX 24 38 -1 -1
BITMAP
003F00
00FFC0
01FFE0
03FFF0
07C0F8
07807C
0F003C
0F0010
0F0000
0F0000
0F0000
078000
07C000
03E000
01F000
01F800
00FE00
003F00
001F80
000FC0
0003E0
0001F0
0000F8
00007C
00003C
00003E
00001E
00001E
00001E
1C001E
3C001E
1E003C
1F007C
0FC0F8
07FFF0
03FFE0
00FFC0
003E00
ENDCHAR

STARTCHAR T
ENCODING 84
SWIDTH 426 0
DWIDTH 21 0
BBX 22 36 0 0
BITMAP
7FFFF8
7FFFF8
7FFFF8
7FFFF8
007800
007800
007800
007800
007800
007800
007800
007800
007800
007800
007800
007800
007800
007800
007800
007800
007800
007800
007800
007800
007800
007800
007800
007800
007800
007800
007800
007800
007800
007800
007800
007800
ENDCHAR

STARTCHAR U
ENCODING 85
SWIDTH 655 0
DWIDTH 33 0
BBX 26 37 3 -1
BITMAP
78000780
78000780
78000780
78000780
78000780
78000780
78000780
78000780
78000780
78000780
78000780
78000780
78000780
78000780
78000780
78000780
78000780
78000780
78000780
78000780
78000780
78000780
78000780
78000780
78000780
78000780
78000780
38000700
3C000F00
3C000F00
1E001E00
1F003E00
0F807C00
07FFF800
03FFF000
00FFE000
003F0000
ENDCHAR

STARTCHAR V
ENCODING 86
SWIDTH 702 0
DWIDTH 35 0
BBX 35 36 0 0
BITMAP
3C00000780
3C00000780
1E00000700
1E00000F00
0F00000F00
0F00001E00
0F00001E00
0780003C00
0780003C00
03C0007800
03C0007800
01E0007000
01E000F000
01E000F000
00F001E000
00F001E000
007803C000
007803C000
003C038000
003C078000
003C078000
001E0F0000
001E0F0000
000F1E0000
000F1E0000
00073C0000
0007BC0000
0007BC0000
0003F80000
0003F80000
0001F00000
0001F00000
0000E00000
0000E00000
0000E00000
0000400000
ENDCHAR

STARTCHAR W
ENCODING 87
SWIDTH 960 0
DWIDTH 48 0
BBX 46 36 1 0
BITMAP
380003000070
3C0003000070
3C00030000F0
3C00078000F0
1C00078000E0
1E000FC001E0
1E000FC001E0
0E000FC001E0
0F001FE001C0
0F001FE003C0
0F001CF003C0
07003CF00380
07803C700780
078078780780
078078780780
0380703C0700
03C0F03C0F00
03C0F03C0F00
01C1E01E0E00
01E1E01E1E00
01E1C00E1E00
01E3C00F1E00
00E3C00F1C00
00F78007BC00
00F78007BC00
00770003B800
007F0003F800
007F0003F800
007E0001F800
003E0001F000
003C0000F000
003C0000F000
001C0000E000
001800006000
001800006000
001000006000
ENDCHAR

STARTCHAR X
ENCODING 88
SWIDTH 609 0
DWIDTH 30 0
BBX 30 36 0 0
BITMAP
1E0000F0
1F0001E0
0F0003E0
078003C0
07800780
03C00780
03E00F00
01E01F00
00F01E00
00F83C00
00783C00
003C7800
003CF000
001EF000
001FE000
000FE000
0007C000
00078000
0007C000
000FE000
001FE000
001EF000
003CF800
007C7800
00783C00
00F03C00
00F01E00
01E01F00
03E00F00
03C00780
07800780
078003C0
0F0003E0
1E0001E0
1E0000F0
3C0000F8
ENDCHAR

STARTCHAR Y
ENCODING 89
SWIDTH 592 0
DWIDTH 30 0
BBX 30 36 0 0
BITMAP
3C0000F0
1E0001E0
1E0001E0
0F0003C0
0F800780
07800780
03C00F00
03E00F00
01E01E00
01F03C00
00F03C00
00787800
007CF800
003CF000
001FE000
001FE000
000FC000
000FC000
00078000
00078000
00078000
00078000
00078000
00078000
00078000
00078000
00078000
00078000
00078000
00078000
00078000
00078000
00078000
00078000
00078000
00078000
ENDCHAR

STARTCHAR Z
ENCODING 90
SWIDTH 480 0
DWIDTH 24 0
BBX 23 36 0 0
BITMAP
1FFFFC
1FFFF8
1FFFF8
1FFFF0
0000F0
0000E0
0001E0
0001C0
0003C0
0003C0
000780
000780
000F00
000F00
001E00
001E00
003C00
003C00
003800
007800
007000
00F000
00E000
01E000
01E000
03C000
03C000
078000
078000
0F0000
0F0000
1E0000
1FFFF8
3FFFF8
3FFFF8
3FFFF8
ENDCHAR

STARTCHAR bracketleft
ENCODING 91
SWIDTH 351 0
DWIDTH 18 0
BBX 11 47 5 -10
BITMAP
3FC0
3FC0
3FC0
3FC0
3800
3800
3800
3800
3800
3800
3800
3800
3800
3800
3800
3800
3800
3800
3800
3800
3800
3800
3800
3800
3800
3800
3800
3800
3800
3800
3800
3800
3800
3800
3800
3800
3800
3800
3800
3800
3800
3800
3800
3800
3FC0
3FC0
3FC0
ENDCHAR

STARTCHAR backslash
ENCODING 92
SWIDTH 605 0
DWIDTH 30 0
BBX 30 42 0 -5
BITMAP
3C000000
3C000000
1E000000
0E000000
0F000000
07000000
07800000
03C00000
03C00000
01E00000
01E00000
00F00000
00700000
00780000
00380000
003C0000
001E0000
001E0000
000F0000
000F0000
00078000
00038000
0003C000
0001C000
0001E000
0000F000
0000F000
00007800
00007800
00003C00
00001C00
00001E00
00000E00
00000F00
00000780
00000780
000003C0
000003C0
000001E0
000000E0
000000F0
00000070
ENDCHAR

STARTCHAR bracketright
ENCODING 93
SWIDTH 351 0
DWIDTH 18 0
BBX 11 47 1 -10
BITMAP
7F80
7F80
7F80
0380
0380
0380
0380
0380
0380
0380
0380
0380
0380
0380
0380
0380
0380
0380
0380
0380
0380
0380
0380
0380
0380
0380
0380
0380
0380
0380
0380
0380
0380
0380
0380
0380
0380
0380
0380
0380
0380
0380
0380
7F80
7F80
7F80
7F80
ENDCHAR

STARTCHAR asciicircum
ENCODING 94
SWIDTH 672 0
DWIDTH 34 0
BBX 31 27 1 9
BITMAP
0003C000
0003C000
0007C000
0007E000
000EE000
000E7000
001E7000
001C7800
001C3800
00383C00
00381C00
00701E00
00700E00
00E00F00
00E00700
01C00700
01C00380
03800380
038001C0
078001C0
070000E0
070000E0
0E0000F0
0E000070
1C000078
1C000038
3800003C
ENDCHAR

STARTCHAR underscore
ENCODING 95
SWIDTH 500 0
DWIDTH 25 0
BBX 29 2 -2 -6
BITMAP
3FFFFFE0
3FFFFFE0
ENDCHAR

STARTCHAR quoteleft
ENCODING 96
SWIDTH 351 0
DWIDTH 18 0
BBX 8 14 5 23
BITMAP
08
1C
18
18
30
30
30
3C
3C
3C
3C
3C
3C
3C
ENDCHAR

STARTCHAR a
ENCODING 97
SWIDTH 683 0
DWIDTH 34 0
BBX 31 29 1 -1
BITMAP
001FE000
007FFC38
00FFFE38
03F83F38
07E007B8
078003F8
0F0001F8
1E0000F8
1E0000F8
1C000078
3C000078
3C000038
38000038
38000038
38000038
38000038
38000038
3C000038
3C000078
1C000078
1E000078
1F0000F8
0F0001F8
078003F8
03E007B8
03F83F38
00FFFE38
007FF838
000FE000
ENDCHAR

STARTCHAR b
ENCODING 98
SWIDTH 682 0
DWIDTH 34 0
BBX 31 38 2 -1
BITMAP
38000000
38000000
38000000
38000000
38000000
38000000
38000000
38000000
38000000
380FF000
383FFC00
38FFFF00
39F83F80
3BC007C0
3F8003E0
3F0001E0
3E0000F0
3C000078
3C000078
3C000038
3800003C
3800003C
3800003C
3800003C
3800003C
3800003C
3800003C
3C000038
3C000078
3E000078
3E0000F0
3F0001F0
3F8003E0
3BE007C0
39F83F80
38FFFF00
383FFC00
000FF000
ENDCHAR

STARTCHAR c
ENCODING 99
SWIDTH 647 0
DWIDTH 32 0
BBX 30 29 1 -1
BITMAP
000FF800
003FFF00
00FFFF80
01FC0FE0
03E003F0
078000F0
0F000078
0F000020
1E000000
1C000000
3C000000
3C000000
38000000
38000000
38000000
38000000
3C000000
3C000000
3C000000
1C000000
1E000000
1F000020
0F000070
07C000F0
03E003F0
01FC0FE0
00FFFF80
003FFF00
000FF800
ENDCHAR

STARTCHAR d
ENCODING 100
SWIDTH 685 0
DWIDTH 34 0
BBX 31 38 1 -1
BITMAP
00000038
00000038
00000038
00000038
00000038
00000038
00000038
00000038
00000038
001FE038
007FFC38
01FFFE38
03F83F38
07E00FB8
0F8003F8
0F0001F8
1E0000F8
3C0000F8
3C000078
38000078
38000038
78000038
78000038
78000038
78000038
78000038
38000038
3C000078
3C000078
1C000078
1E0000F8
0F0001F8
0F8003F8
07C007B8
03F83F38
01FFFE38
007FF838
001FE000
ENDCHAR

STARTCHAR e
ENCODING 101
SWIDTH 650 0
DWIDTH 32 0
BBX 30 29 1 -1
BITMAP
001FE000
007FFC00
01FFFE00
03F87F00
07C00F80
0F8007C0
0F0001E0
1E0001E0
1C0000F0
3C0000F0
3C000070
38000078
7FFFFFF8
7FFFFFF8
7FFFFFF8
78000000
78000000
38000000
38000000
3C000000
3C0000E0
1E0000F0
1F0001E0
0F8003C0
07C00FC0
03F03F80
01FFFE00
007FFC00
001FE000
ENDCHAR

STARTCHAR f
ENCODING 102
SWIDTH 314 0
DWIDTH 16 0
BBX 16 38 1 0
BITMAP
01FC
03FC
03FC
0784
0700
0700
0700
0700
0700
0700
0700
7FFC
7FFC
7FFC
0700
0700
0700
0700
0700
0700
0700
0700
0700
0700
0700
0700
0700
0700
0700
0700
0700
0700
0700
0700
0700
0700
0700
0700
ENDCHAR

STARTCHAR g
ENCODING 103
SWIDTH 673 0
DWIDTH 34 0
BBX 31 39 1 -11
BITMAP
001FE000
007FFC38
00FFFE38
03F83F38
07E007B8
078003F8
0F0001F8
1E0000F8
1E000078
1C000078
3C000078
3C000038
38000038
38000038
38000038
38000038
38000038
3C000078
3C000078
1E000078
1E0000F8
0F0001F8
0F8003F8
07C007B8
03F81F38
01FFFE38
007FFC38
001FE038
00000078
00000078
3C000070
1E0000F0
1E0000F0
0F0001E0
07C007C0
03F01FC0
01FFFF00
00FFFE00
001FF000
ENDCHAR

STARTCHAR h
ENCODING 104
SWIDTH 610 0
DWIDTH 31 0
BBX 27 37 2 0
BITMAP
38000000
38000000
38000000
38000000
38000000
38000000
38000000
38000000
38000000
380FE000
383FF800
38FFFC00
39F07E00
3BC01F00
3F800F00
3F000700
3E000780
3E000780
3C000380
3C000380
3C000380
38000380
38000380
38000380
38000380
38000380
38000380
38000380
38000380
38000380
38000380
38000380
38000380
38000380
38000380
38000380
38000380
ENDCHAR

STARTCHAR i
ENCODING 105
SWIDTH 200 0
DWIDTH 10 0
BBX 8 38 1 0
BITMAP
18
3C
7E
7E
3C
18
00
00
00
00
00
1C
1C
1C
1C
1C
1C
1C
1C
1C
1C
1C
1C
1C
1C
1C
1C
1C
1C
1C
1C
1C
1C
1C
1C
1C
1C
1C
ENDCHAR

STARTCHAR j
ENCODING 106
SWIDTH 203 0
DWIDTH 10 0
BBX 12 49 -3 -11
BITMAP
0180
03C0
07E0
07E0
03C0
0180
0000
0000
0000
0000
0000
01C0
01C0
01C0
01C0
01C0
01C0
01C0
01C0
01C0
01C0
01C0
01C0
01C0
01C0
01C0
01C0
01C0
01C0
01C0
01C0
01C0
01C0
01C0
01C0
01C0
01C0
01C0
01C0
01C0
01C0
01C0
01C0
01C0
01C0
23C0
3FC0
3F80
3F00
ENDCHAR

STARTCHAR k
ENCODING 107
SWIDTH 502 0
DWIDTH 25 0
BBX 25 37 2 0
BITMAP
38000000
38000000
38000000
38000000
38000000
38000000
38000000
38000000
38000000
38000000
38007C00
3800F800
3801F000
3803E000
380F8000
381F0000
383E0000
387C0000
38F80000
39F00000
3BE00000
3FC00000
3F000000
3F800000
3FC00000
3BE00000
39F00000
38F80000
387C0000
383E0000
381F0000
38078000
3803E000
3801F000
3800F800
38007C00
38003E00
ENDCHAR

STARTCHAR l
ENCODING 108
SWIDTH 200 0
DWIDTH 10 0
BBX 7 37 2 0
BITMAP
38
38
38
38
38
38
38
38
38
38
38
38
38
38
38
38
38
38
38
38
38
38
38
38
38
38
38
38
38
38
38
38
38
38
38
38
38
ENDCHAR

STARTCHAR m
ENCODING 109
SWIDTH 938 0
DWIDTH 47 0
BBX 43 28 2 0
BITMAP
001FC007F000
387FE01FF800
38FFF83FFC00
39F0F8783E00
3B807CE00F00
3F003DC00F00
3E001F800780
3E001F800780
3C000F000380
3C000F000380
3C000F000380
3C000E000380
38000E000380
38000E000380
38000E000380
38000E000380
38000E000380
38000E000380
38000E000380
38000E000380
38000E000380
38000E000380
38000E000380
38000E000380
38000E000380
38000E000380
38000E000380
38000E000380
ENDCHAR

STARTCHAR n
ENCODING 110
SWIDTH 610 0
DWIDTH 31 0
BBX 27 28 2 0
BITMAP
000FE000
383FF800
38FFFC00
39F07E00
3BC01F00
3F800F00
3F000700
3E000780
3E000780
3C000380
3C000380
3C000380
38000380
38000380
38000380
38000380
38000380
38000380
38000380
38000380
38000380
38000380
38000380
38000380
38000380
38000380
38000380
38000380
ENDCHAR

STARTCHAR o
ENCODING 111
SWIDTH 655 0
DWIDTH 33 0
BBX 31 29 1 -1
BITMAP
000FF000
007FFC00
00FFFE00
03F83F80
07E00FC0
078003C0
0F0001E0
1F0000F0
1E0000F0
1C000078
3C000078
3C000078
38000038
38000038
38000038
38000038
38000038
3C000038
3C000078
1C000070
1E0000F0
1E0000F0
0F0001E0
078003C0
07E00FC0
03F83F80
00FFFE00
007FFC00
000FE000
ENDCHAR

STARTCHAR p
ENCODING 112
SWIDTH 682 0
DWIDTH 34 0
BBX 31 38 2 -10
BITMAP
000FF000
383FFC00
38FFFF00
39F83F80
3BE007C0
3F8003E0
3F0001F0
3E0000F0
3E000078
3C000078
3C000038
3800003C
3800003C
3800003C
3800003C
3800003C
3800003C
38000038
3C000038
3C000078
3E000078
3E0000F0
3F0001F0
3F8003E0
3BE007C0
39F83F80
38FFFF00
383FFC00
380FF000
38000000
38000000
38000000
38000000
38000000
38000000
38000000
38000000
38000000
ENDCHAR

STARTCHAR q
ENCODING 113
SWIDTH 682 0
DWIDTH 34 0
BBX 31 38 1 -10
BITMAP
001FE000
007FFC38
01FFFE38
03F83F38
07E00FB8
0F8003F8
1F0001F8
1E0000F8
3C0000F8
3C000078
38000078
38000038
78000038
78000038
78000038
78000038
78000038
38000038
3C000078
3C000078
1C000078
1E0000F8
0F0001F8
0F8003F8
07C007B8
03F83F38
01FFFE38
007FF838
001FE038
00000038
00000038
00000038
00000038
00000038
00000038
00000038
00000038
00000038
ENDCHAR

STARTCHAR r
ENCODING 114
SWIDTH 301 0
DWIDTH 15 0
BBX 16 28 1 0
BITMAP
007C
79FC
7BFC
7BC8
7F00
7E00
7C00
7C00
7C00
7800
7800
7800
7800
7800
7800
7800
7800
7800
7800
7800
7800
7800
7800
7800
7800
7800
7800
7800
ENDCHAR

STARTCHAR s
ENCODING 115
SWIDTH 388 0
DWIDTH 19 0
BBX 19 29 0 -1
BITMAP
01F800
03FE00
07FF00
0F0F80
1E0700
1C0000
1C0000
1C0000
1C0000
1E0000
0F0000
0F8000
07E000
03F000
01FC00
007E00
001F00
000F00
000780
000380
000380
000380
000380
180780
3C0700
3F1F00
1FFE00
0FFC00
03F000
ENDCHAR

STARTCHAR t
ENCODING 116
SWIDTH 339 0
DWIDTH 17 0
BBX 16 37 1 0
BITMAP
0380
0380
0380
0380
0380
0380
0380
0380
0380
0380
7FFE
7FFE
7FFE
0380
0380
0380
0380
0380
0380
0380
0380
0380
0380
0380
0380
0380
0380
0380
0380
0380
0380
0380
0380
0380
0380
0380
0380
ENDCHAR

STARTCHAR u
ENCODING 117
SWIDTH 608 0
DWIDTH 30 0
BBX 26 28 2 -1
BITMAP
78000780
78000780
78000780
78000780
78000780
78000780
78000780
78000780
78000780
78000780
78000780
78000780
78000780
78000780
78000780
78000780
78000780
78000780
38000700
38000700
3C000F00
3C000F00
1E001E00
1F003E00
0FE1FC00
07FFF800
03FFF000
007F8000
ENDCHAR

STARTCHAR v
ENCODING 118
SWIDTH 554 0
DWIDTH 28 0
BBX 28 27 0 0
BITMAP
380003C0
3C0003C0
3C000380
1E000780
1E000700
0E000F00
0F000E00
07001E00
07801C00
03803C00
03C03C00
01C03800
01E07800
01E07000
00F0F000
00F0E000
0071E000
0079C000
003BC000
003FC000
001F8000
001F8000
000F0000
000F0000
000E0000
00060000
00040000
ENDCHAR

STARTCHAR w
ENCODING 119
SWIDTH 831 0
DWIDTH 42 0
BBX 44 27 -1 0
BITMAP
7800040001C0
3800060003C0
3C000E000380
1C000F000780
1E001F000700
0E001F000F00
0E001F800F00
0F003F800E00
07003BC01E00
07807BC01C00
038071E03C00
03C0F1E03800
03C0F0E03800
01C0E0F07800
01E1E0707000
00E1C078F000
00F3C038E000
0073803DE000
0077803DC000
007F801FC000
003F001FC000
003F000F8000
001E000F8000
001E00070000
001C00070000
000C00060000
000800020000
ENDCHAR

STARTCHAR x
ENCODING 120
SWIDTH 480 0
DWIDTH 24 0
BBX 28 27 -2 0
BITMAP
1E000780
0F000F00
07801E00
07803E00
03C03C00
01E07800
01F0F000
00F0F000
0079E000
003FC000
003FC000
001F8000
000F0000
001F0000
001F8000
003FC000
007BE000
0079E000
00F0F000
01E07800
03C07C00
03C03C00
07801E00
0F000F00
0F000F00
1E000780
3C0003C0
ENDCHAR

STARTCHAR y
ENCODING 121
SWIDTH 536 0
DWIDTH 27 0
BBX 29 37 -1 -10
BITMAP
3C0001E0
1C0001E0
1E0001C0
1E0003C0
0F000380
0F000780
07000700
07800F00
03800F00
03C00E00
01C01E00
01E01C00
01E03C00
00F03800
00F07800
00707800
00787000
0038F000
003CE000
003DE000
001FC000
001FC000
000FC000
000F8000
00078000
00070000
000F0000
000E0000
001E0000
001E0000
001C0000
003C0000
00380000
00780000
00700000
00F00000
00F00000
ENDCHAR

STARTCHAR z
ENCODING 122
SWIDTH 425 0
DWIDTH 21 0
BBX 24 27 -1 0
BITMAP
1FFFFC
1FFFF8
1FFFF8
0000F0
0001E0
0001E0
0003C0
000780
000780
000F00
000F00
001E00
003C00
003C00
007800
00F000
00F000
01E000
01E000
03C000
078000
078000
0F0000
1E0000
1FFFFC
3FFFFC
3FFFFC
ENDCHAR

STARTCHAR braceleft
ENCODING 123
SWIDTH 351 0
DWIDTH 18 0
BBX 18 47 0 -11
BITMAP
001F00
007F00
007F00
00FF00
00F000
01F000
01E000
01E000
01E000
01E000
01E000
01E000
01E000
01E000
01E000
01E000
01E000
01E000
03C000
03C000
07C000
3F8000
3F0000
3C0000
3F0000
3F8000
07C000
03C000
03C000
01E000
01E000
01E000
01E000
01E000
01E000
01E000
01E000
01E000
01E000
01E000
01E000
01F000
00F000
00FF00
00FF00
007F00
001F00
ENDCHAR

STARTCHAR bar
ENCODING 124
SWIDTH 672 0
DWIDTH 34 0
BBX 7 47 13 -10
BITMAP
38
38
38
38
38
38
38
38
38
38
38
38
38
38
38
38
38
38
38
38
38
38
38
38
38
38
38
38
38
38
38
38
38
38
38
38
38
38
38
38
38
38
38
38
38
38
38
ENDCHAR

STARTCHAR braceright
ENCODING 125
SWIDTH 351 0
DWIDTH 18 0
BBX 17 47 1 -11
BITMAP
7C0000
7F0000
7F8000
7F8000
07C000
03C000
03C000
03C000
03C000
03C000
03C000
03C000
03C000
03C000
03C000
03C000
03C000
03E000
01E000
01E000
01F000
00FE00
007E00
001E00
007E00
00FE00
01F000
01E000
01E000
03E000
03C000
03C000
03C000
03C000
03C000
03C000
03C000
03C000
03C000
03C000
03C000
03C000
07C000
7F8000
7F8000
7F0000
7C0000
ENDCHAR

STARTCHAR asciitilde
ENCODING 126
SWIDTH 606 0
DWIDTH 30 0
BBX 28 8 1 14
BITMAP
03C00000
1FF80020
3FFE0060
3FFFC1E0
381FFFE0
2007FFC0
0000FF80
00003C00
ENDCHAR

STARTCHAR space
ENCODING 160
SWIDTH 277 0
DWIDTH 17 0
BBX 0 0 0 0
BITMAP
ENDCHAR

STARTCHAR Aogonek
ENCODING 161
SWIDTH 740 0
DWIDTH 37 0
BBX 40 46 0 -10
BITMAP
0000200000
0000700000
0000700000
0000780000
0000F80000
0000FC0000
0001FC0000
0001FE0000
0003DE0000
0003DE0000
00078F0000
00078F0000
000F078000
000F078000
001E03C000
001E03C000
003E01E000
003C01E000
007C01F000
007800F000
00F800F800
00FFFFF800
00FFFFFC00
01FFFFFC00
01FFFFFC00
03C0001E00
03C0001E00
0780000F00
0780000F00
0F00000780
0F00000780
1E000003C0
1E000003C0
3C000001E0
3C000001E0
78000000F0
0000000060
00000000C0
00000001C0
0000000180
0000000380
0000000380
0000000380
00000001E0
00000001FC
000000007C
ENDCHAR

STARTCHAR afii240
ENCODING 162
SWIDTH 500 0
DWIDTH 25 0
BBX 25 26 1 0
BITMAP
3C00FC00
3C01F800
3C03F000
3C07E000
3C0FC000
3C1F8000
3C3F0000
3C7E0000
3CFC0000
3DF80000
3FF80000
3FFC0000
3FFC0000
3F3E0000
3E3F0000
3C1F0000
3C0F8000
3C0FC000
3C07C000
3C03E000
3C03F000
3C01F000
3C00F800
3C00FC00
3C007C00
3C003E00
ENDCHAR

STARTCHAR Rcommaaccent
ENCODING 163
SWIDTH 607 0
DWIDTH 30 0
BBX 26 46 3 -10
BITMAP
7FFE0000
7FFFE000
7FFFF000
7FFFFC00
78007C00
78003E00
78001E00
78000F00
78000F00
78000F00
78000F00
78000F00
78001F00
78001E00
78003E00
7801FC00
7FFFF800
7FFFF000
7FFFC000
79E00000
78F00000
78F80000
787C0000
783E0000
781E0000
780F0000
780F8000
7807C000
7803C000
7801E000
7800F000
7800F800
78007C00
78003C00
78001E00
78001F00
00000000
00000000
00000000
00780000
00780000
00780000
00780000
00180000
00180000
00100000
ENDCHAR

STARTCHAR currency
ENCODING 164
SWIDTH 554 0
DWIDTH 28 0
BBX 29 25 -1 5
BITMAP
181FE0C0
3CFFF9E0
3FFFFFE0
1FF07FC0
0FC01F80
0F000780
1E0003C0
1E0003C0
3C0001E0
3C0001E0
3C0000E0
380000E0
380000E0
380000E0
3C0000E0
3C0001E0
3C0001E0
1E0003C0
1F0003C0
0F800780
0FC01F80
1FF07FC0
3FFFFDE0
38FFF8E0
101FE040
ENDCHAR

STARTCHAR Itilde
ENCODING 165
SWIDTH 226 0
DWIDTH 11 0
BBX 21 44 -5 0
BITMAP
0FC000
1FF8E0
3FFFE0
187FE0
000F80
000000
000000
000000
007800
007800
007800
007800
007800
007800
007800
007800
007800
007800
007800
007800
007800
007800
007800
007800
007800
007800
007800
007800
007800
007800
007800
007800
007800
007800
007800
007800
007800
007800
007800
007800
007800
007800
007800
007800
ENDCHAR

STARTCHAR Lcommaaccent
ENCODING 166
SWIDTH 462 0
DWIDTH 23 0
BBX 21 46 3 -10
BITMAP
780000
780000
780000
780000
780000
780000
780000
780000
780000
780000
780000
780000
780000
780000
780000
780000
780000
780000
780000
780000
780000
780000
780000
780000
780000
780000
780000
780000
780000
780000
780000
780000
7FFFE0
7FFFE0
7FFFE0
7FFFE0
000000
000000
000000
00F000
00F000
00F000
00F000
003000
003000
006000
ENDCHAR

STARTCHAR section
ENCODING 167
SWIDTH 615 0
DWIDTH 31 0
BBX 24 48 2 -11
BITMAP
003E00
01FFC0
03FFE0
07FFF0
0F80F8
0F0078
1E003C
1E003C
1E003C
0E0000
0F0000
0F0000
078000
03E000
01F000
00FC00
03FF00
0FDF80
1E07E0
1C01F0
3C00F8
38007C
38003C
38001E
3C001E
3C001E
1E001E
0F803C
07C03C
03F0F8
01FFF0
00FFC0
003F00
001FC0
0007E0
0003E0
0001F0
0000F0
000078
000078
000078
1C0078
1E0078
1F00F0
0F83F0
07FFE0
03FFC0
00FF00
ENDCHAR

STARTCHAR hungarumlaut
ENCODING 168
SWIDTH 552 0
DWIDTH 28 0
BBX 21 8 5 31
BITMAP
03F3E0
03E3C0
07C780
0F8F00
0F1F00
1E1E00
3C3C00
387800
ENDCHAR

STARTCHAR Scaron
ENCODING 169
SWIDTH 498 0
DWIDTH 25 0
BBX 24 46 -1 -1
BITMAP
0F80F8
07C1F0
03E3C0
00FF80
007F00
003E00
000000
000000
003F00
00FFC0
01FFE0
03FFF0
07C0F8
07807C
0F003C
0F0010
0F0000
0F0000
0F0000
078000
07C000
03E000
01F000
00F800
007E00
003F00
001F80
000FC0
0003E0
0001F0
0000F8
00007C
00003C
00003E
00001E
00001E
00001E
1C001E
3C001E
1E003C
1F007C
0FC0F8
07FFF0
03FFE0
00FFC0
003E00
ENDCHAR

STARTCHAR Emacron
ENCODING 170
SWIDTH 536 0
DWIDTH 27 0
BBX 23 43 3 0
BITMAP
1FFFF0
1FFFF0
1FFFF0
000000
000000
000000
000000
7FFFFC
7FFFFC
7FFFFC
7FFFFC
780000
780000
780000
780000
780000
780000
780000
780000
780000
780000
780000
7FFFFC
7FFFFC
7FFFFC
7FFFFC
780000
780000
780000
780000
780000
780000
780000
780000
780000
780000
780000
780000
780000
7FFFFC
7FFFFC
7FFFFC
7FFFFC
ENDCHAR

STARTCHAR Gcommaaccent
ENCODING 171
SWIDTH 872 0
DWIDTH 44 0
BBX 41 47 2 -10
BITMAP
00007F000000
0007FFF00000
001FFFFE0000
007FFFFF0000
00FF007FC000
01FC000FE000
03F00003F000
07C00001F800
078000007000
0F8000002000
1F0000000000
1E0000000000
3E0000000000
3C0000000000
3C0000000000
380000000000
780000000000
780000000000
780000000000
780000000000
780000FFFE00
780000FFFE00
780000FFFE00
3C0000FFFE00
3C0000001E00
3C0000001E00
1E0000003C00
1E0000003C00
0F0000003C00
0F8000007800
07C00000F800
03E00001F000
01F80003E000
00FC000FC000
007FC07F8000
001FFFFE0000
0007FFF80000
0000FFC00000
000000000000
000000000000
00001E000000
00001E000000
00001E000000
00001E000000
000006000000
000006000000
000004000000
ENDCHAR

STARTCHAR afii237
ENCODING 172
SWIDTH 614 0
DWIDTH 31 0
BBX 31 36 0 0
BITMAP
7FFFFFFC
7FFFFFFC
7FFFFFFC
7FFFFFFC
0007C000
0007C000
0007C000
0007C000
0007C000
0007C000
0007C000
0007C000
0007C000
0007C000
0007C000
0007C000
0007C000
0FFFFFE0
0FFFFFE0
0FFFFFE0
0007C000
0007C000
0007C000
0007C000
0007C000
0007C000
0007C000
0007C000
0007C000
0007C000
0007C000
0007C000
0007C000
0007C000
0007C000
0007C000
ENDCHAR

STARTCHAR hyphen
ENCODING 173
SWIDTH 332 0
DWIDTH 17 0
BBX 17 3 0 12
BITMAP
3FFE00
3FFE00
3FFE00
ENDCHAR

STARTCHAR Zcaron
ENCODING 174
SWIDTH 480 0
DWIDTH 24 0
BBX 23 45 0 0
BITMAP
1F00F0
0F83E0
07C7C0
01EF80
00FE00
007C00
000000
000000
000000
1FFFFC
1FFFF8
1FFFF8
1FFFF0
0000F0
0000E0
0001E0
0001C0
0003C0
0003C0
000780
000780
000F00
000F00
001E00
001E00
003C00
003C00
003800
007800
007000
00F000
00E000
01E000
01E000
03C000
03C000
078000
078000
0F0000
0F0000
1E0000
1FFFF8
3FFFF8
3FFFF8
3FFFF8
ENDCHAR

STARTCHAR macron
ENCODING 175
SWIDTH 485 0
DWIDTH 24 0
BBX 20 3 2 33
BITMAP
3FFFE0
3FFFE0
3FFFE0
ENDCHAR

STARTCHAR degree
ENCODING 176
SWIDTH 400 0
DWIDTH 20 0
BBX 19 17 1 20
BITMAP
01F000
07FC00
0FFE00
1E0F00
3C0380
380380
7001C0
7001C0
7001C0
7001C0
7001C0
380380
3C0380
1E0F00
0FFE00
07FC00
01F000
ENDCHAR

STARTCHAR aogonek
ENCODING 177
SWIDTH 683 0
DWIDTH 34 0
BBX 34 38 1 -10
BITMAP
000FF00000
007FFC1C00
00FFFF1C00
03FC3F9C00
07E007FC00
07C001FC00
0F0000FC00
1F00007C00
1E00007C00
1C00003C00
3C00003C00
3C00001C00
3800001C00
3800001C00
3800001C00
3800001C00
3C00001C00
3C00001C00
3C00003C00
1C00003C00
1E00007C00
0F00007C00
0F0000FC00
07C001FC00
03E007FC00
01F81FBC00
00FFFE3C00
007FFC3C00
000FF01C00
0000003800
0000007000
0000006000
000000E000
000000E000
000000E000
0000007800
0000007F00
0000001F00
ENDCHAR

STARTCHAR ogonek
ENCODING 178
SWIDTH 302 0
DWIDTH 15 0
BBX 11 10 3 -9
BITMAP
0E00
1C00
3800
3000
7000
7000
7000
3C00
3F80
0F80
ENDCHAR

STARTCHAR rcommaaccent
ENCODING 179
SWIDTH 301 0
DWIDTH 15 0
BBX 16 38 1 -10
BITMAP
007C
79FC
7BFC
7BC8
7F00
7E00
7C00
7C00
7C00
7800
7800
7800
7800
7800
7800
7800
7800
7800
7800
7800
7800
7800
7800
7800
7800
7800
7800
7800
0000
0000
0000
0F00
0F00
0F00
0F00
0300
0300
0600
ENDCHAR

STARTCHAR acute
ENCODING 180
SWIDTH 375 0
DWIDTH 19 0
BBX 14 7 4 32
BITMAP
01F0
03E0
07C0
0780
0F00
1E00
3C00
ENDCHAR

STARTCHAR itilde
ENCODING 181
SWIDTH 200 0
DWIDTH 10 0
BBX 21 37 -4 0
BITMAP
0F8000
3FF0C0
7FFFE0
387FC0
001F00
000000
000000
000000
000000
000000
00E000
00E000
00E000
00E000
00E000
00E000
00E000
00E000
00E000
00E000
00E000
00E000
00E000
00E000
00E000
00E000
00E000
00E000
00E000
00E000
00E000
00E000
00E000
00E000
00E000
00E000
00E000
ENDCHAR

STARTCHAR lcommaaccent
ENCODING 182
SWIDTH 200 0
DWIDTH 10 0
BBX 7 47 1 -10
BITMAP
38
38
38
38
38
38
38
38
38
38
38
38
38
38
38
38
38
38
38
38
38
38
38
38
38
38
38
38
38
38
38
38
38
38
38
38
38
00
00
00
3C
3C
3C
3C
0C
0C
18
ENDCHAR

STARTCHAR caron
ENCODING 183
SWIDTH 502 0
DWIDTH 25 0
BBX 21 7 2 31
BITMAP
3C01E0
1E03C0
0F8F80
07DF00
03FE00
00FC00
007000
ENDCHAR

STARTCHAR commaaccent
ENCODING 184
SWIDTH 333 0
DWIDTH 17 0
BBX 6 7 6 -10
BITMAP
78
78
78
78
18
18
30
ENDCHAR

STARTCHAR scaron
ENCODING 185
SWIDTH 388 0
DWIDTH 19 0
BBX 21 40 -1 -1
BITMAP
3C01E0
1E03C0
0F0F80
07DF00
03FE00
01F800
00F000
000000
000000
000000
000000
00FC00
03FF00
03FF80
0787C0
0F0380
0E0000
0E0000
0E0000
0E0000
0F0000
078000
07C000
03F000
01F800
00FE00
003F00
000F80
000780
0003C0
0001C0
0001C0
0001C0
0001C0
0C03C0
1E0380
1F8F80
0FFF00
07FE00
01F800
ENDCHAR

STARTCHAR emacron
ENCODING 186
SWIDTH 650 0
DWIDTH 32 0
BBX 30 37 1 -1
BITMAP
01FFFF00
01FFFF00
01FFFF00
00000000
00000000
00000000
00000000
00000000
001FE000
007FF800
01FFFE00
03F87F00
07C00F80
0F8007C0
0F0001E0
1E0001E0
1E0000F0
3C0000F0
3C000070
38000078
7FFFFFF8
7FFFFFF8
7FFFFFF8
78000000
78000000
38000000
38000000
3C000000
3C0000E0
1E0000F0
1F0001E0
0F8003C0
07C00FC0
03F03F80
01FFFE00
007FFC00
001FE000
ENDCHAR

STARTCHAR gcommaaccent
ENCODING 187
SWIDTH 673 0
DWIDTH 34 0
BBX 32 51 0 -11
BITMAP
00008000
0000C000
00018000
00018000
0001E000
0001E000
0001E000
0001E000
00000000
00000000
00000000
00000000
000FF000
007FFC1C
00FFFF1C
01FC1F9C
03E007DC
078001FC
0F0000FC
1F00007C
1E00007C
1C00003C
3C00003C
3C00001C
3800001C
3800001C
3800001C
3800001C
3C00001C
3C00003C
3C00003C
1E00003C
1E00007C
0F0000FC
0F8001FC
07E003DC
03F81F9C
01FFFF1C
007FFC1C
001FF01C
0000003C
0000003C
3C000038
1E000078
1E0000F8
0F8001F0
07C003E0
03F81FC0
01FFFF80
00FFFE00
001FF800
ENDCHAR

STARTCHAR afii253
ENCODING 188
SWIDTH 280 0
DWIDTH 14 0
BBX 16 35 -1 0
BITMAP
0080
0380
0780
0780
0780
0780
0780
0780
0780
3FFC
3FFC
3FFC
0780
0780
0780
0780
0780
0780
0780
7FFC
7FFC
7FFC
0780
0780
0780
0780
0780
0780
0780
0780
07C0
07FC
03FC
03FC
00FC
ENDCHAR

STARTCHAR afii238
ENCODING 189
SWIDTH 723 0
DWIDTH 36 0
BBX 32 38 3 -1
BITMAP
0007F000
7C3FFE00
7C7FFF00
7CFFFF80
7DF81FC0
7FC007E0
7F8001F0
7F0001F0
7E0000F8
7E0000F8
7E00007C
7C00007C
7C00007C
7C00003C
7C00003E
7C00003E
7C00003E
7C00003E
7C00003E
7C00003E
7C00003E
7C00003E
7C00003E
7C00003E
7C00003E
7C00003E
7C00007C
7C00007C
7C00007C
7C0000FC
7C0000F8
7C0001F8
7C0003F0
7C0187F0
7C03FFE0
7C07FFC0
7C07FF80
0001FE00
ENDCHAR

STARTCHAR zcaron
ENCODING 190
SWIDTH 425 0
DWIDTH 21 0
BBX 24 38 -1 0
BITMAP
1F01F0
0783E0
03C7C0
01EF00
00FE00
007C00
000000
000000
000000
000000
000000
1FFFFC
1FFFF8
1FFFF8
0000F0
0001E0
0001E0
0003C0
000780
000780
000F00
000F00
001E00
003C00
003C00
007800
00F000
00F000
01E000
01E000
03C000
078000
078000
0F0000
1E0000
1FFFFC
3FFFFC
3FFFFC
ENDCHAR

STARTCHAR afii254
ENCODING 191
SWIDTH 556 0
DWIDTH 28 0
BBX 25 38 1 -11
BITMAP
001F8000
3C7FF000
3DFFF800
3FFFFC00
3FC0FC00
3F807E00
3F003E00
3E003E00
3E001E00
3C001E00
3C001E00
3C001E00
3C001E00
3C001E00
3C001E00
3C001E00
3C001E00
3C001E00
3C001E00
3C001E00
3C001E00
3C001E00
3C001E00
3C001E00
3C001E00
3C001E00
3C001E00
00001E00
00001E00
00001E00
00001E00
00001E00
00003E00
00003E00
0003FC00
0003FC00
0007F800
0007E000
ENDCHAR

STARTCHAR Amacron
ENCODING 192
SWIDTH 740 0
DWIDTH 37 0
BBX 37 44 0 0
BITMAP
003FFFE000
003FFFE000
003FFFE000
0000000000
0000000000
0000000000
0000000000
0000000000
0000200000
0000300000
0000700000
0000780000
0000F80000
0000FC0000
0001FC0000
0001FE0000
0003DE0000
0003CF0000
00078F0000
0007870000
000F078000
000F078000
001E03C000
001E03C000
003C01E000
003C01E000
007800F000
007800F000
007FFFF800
00FFFFF800
00FFFFFC00
01FFFFFC00
01E0001E00
03C0001E00
03C0000E00
0780000F00
0780000F00
0F00000780
0F00000780
1E000003C0
1E000003C0
3C000001E0
3C000001E0
78000000F0
ENDCHAR

STARTCHAR Aacute
ENCODING 193
SWIDTH 740 0
DWIDTH 37 0
BBX 37 47 0 0
BITMAP
00000F8000
00001F0000
00001E0000
00003E0000
00007C0000
0000780000
0000F00000
0001E00000
0000000000
0000000000
0000000000
0000200000
0000300000
0000700000
0000780000
0000F80000
0000FC0000
0001FC0000
0001FE0000
0003DE0000
0003CF0000
00078F0000
0007870000
000F078000
000F078000
001E03C000
001E03C000
003C01E000
003C01E000
007800F000
007800F000
007FFFF800
00FFFFF800
00FFFFFC00
01FFFFFC00
01E0001E00
03C0001E00
03C0000E00
0780000F00
0780000F00
0F00000780
0F00000780
1E000003C0
1E000003C0
3C000001E0
3C000001E0
78000000F0
ENDCHAR

STARTCHAR Acircumflex
ENCODING 194
SWIDTH 740 0
DWIDTH 37 0
BBX 37 45 0 0
BITMAP
0000F80000
0001FC0000
0003FE0000
00078F0000
000F07C000
003E03E000
0000000000
0000000000
0000000000
0000200000
0000300000
0000700000
0000780000
0000F80000
0000FC0000
0001FC0000
0001FE0000
0003DE0000
0003CF0000
00078F0000
0007870000
000F078000
000F078000
001E03C000
001E03C000
003C01E000
003C01E000
007800F000
007800F000
007FFFF800
00FFFFF800
00FFFFFC00
01FFFFFC00
01E0001E00
03C0001E00
03C0000E00
0780000F00
0780000F00
0F00000780
0F00000780
1E000003C0
1E000003C0
3C000001E0
3C000001E0
78000000F0
ENDCHAR

STARTCHAR Atilde
ENCODING 195
SWIDTH 740 0
DWIDTH 37 0
BBX 37 45 0 0
BITMAP
000FC00000
001FF0C000
003FFFE000
00387FE000
00101F8000
0000000000
0000000000
0000000000
0000000000
0000200000
0000300000
0000700000
0000780000
0000F80000
0000FC0000
0001FC0000
0001FE0000
0003DE0000
0003CF0000
00078F0000
0007870000
000F078000
000F078000
001E03C000
001E03C000
003C01E000
003C01E000
007800F000
007800F000
007FFFF800
00FFFFF800
00FFFFFC00
01FFFFFC00
01E0001E00
03C0001E00
03C0000E00
0780000F00
0780000F00
0F00000780
0F00000780
1E000003C0
1E000003C0
3C000001E0
3C000001E0
78000000F0
ENDCHAR

STARTCHAR Adieresis
ENCODING 196
SWIDTH 740 0
DWIDTH 37 0
BBX 38 45 -1 0
BITMAP
0006018000
000F03C000
001F87E000
001F87E000
000F03C000
0006018000
0000000000
0000000000
0000000000
0000300000
0000300000
0000380000
0000780000
00007C0000
0000FC0000
0000FE0000
0001FE0000
0001EF0000
0003CF0000
0003C70000
0007878000
0007838000
000F03C000
000F01C000
001E01E000
001E01E000
003C00F000
003C00F000
0038007800
007FFFF800
007FFFFC00
00FFFFFC00
00FFFFFE00
01E0001E00
01C0000E00
03C0000F00
03C0000700
0780000780
0780000780
0F000003C0
0F000003C0
1E000001E0
1E000001E0
3C000000F0
3C000000F0
ENDCHAR

STARTCHAR Aring
ENCODING 197
SWIDTH 740 0
DWIDTH 37 0
BBX 39 49 -1 0
BITMAP
0000380000
0000FE0000
0001830000
0001018000
0003018000
0003018000
0003018000
0001810000
0001830000
0000FE0000
0000380000
0000000000
0000000000
0000100000
0000380000
0000380000
00003C0000
00007C0000
00007E0000
0000FE0000
0000FF0000
0001EF0000
0001E78000
0003C78000
0003C3C000
000783C000
000781C000
000F01E000
000F00E000
001E00F000
001E007000
003C007800
003C003800
007FFFFC00
007FFFFC00
00FFFFFE00
00FFFFFE00
01E0000F00
01E0000F00
01C0000780
03C0000780
03800003C0
07800003C0
07000001C0
0F000001E0
0F000000E0
1E000000F0
1E00000070
3C00000078
ENDCHAR

STARTCHAR AE
ENCODING 198
SWIDTH 992 0
DWIDTH 50 0
BBX 48 36 -1 0
BITMAP
000000FFFFFE
000000FFFFFE
000001FFFFFE
000003FFFFFE
000003FC0000
000007FC0000
00000FBC0000
00000F3C0000
00001F3C0000
00001E3C0000
00003C3C0000
00007C3C0000
0000783C0000
0000F03C0000
0001F03C0000
0001E03FFFFE
0003C03FFFFE
0007C03FFFFE
0007803FFFFE
000F003C0000
001F003C0000
001FFFFC0000
003FFFFC0000
007FFFFC0000
0078003C0000
00F0003C0000
01F0003C0000
01E0003C0000
03C0003C0000
07C0003C0000
0780003C0000
0F00003C0000
1F00003FFFFE
1E00003FFFFE
3C00003FFFFE
3C00003FFFFE
ENDCHAR

STARTCHAR Iogonek
ENCODING 199
SWIDTH 226 0
DWIDTH 11 0
BBX 11 45 1 -9
BITMAP
1E00
1E00
1E00
1E00
1E00
1E00
1E00
1E00
1E00
1E00
1E00
1E00
1E00
1E00
1E00
1E00
1E00
1E00
1E00
1E00
1E00
1E00
1E00
1E00
1E00
1E00
1E00
1E00
1E00
1E00
1E00
1E00
1E00
1E00
1E00
1E00
1C00
3800
3000
7000
7000
7000
3800
3F80
0F80
ENDCHAR

STARTCHAR Ccaron
ENCODING 200
SWIDTH 813 0
DWIDTH 41 0
BBX 38 46 2 -1
BITMAP
000F807800
0007C1F000
0001E3E000
0000F7C000
00007F0000
00003E0000
0000000000
0000000000
00007F0000
0007FFF000
001FFFFC00
007FFFFF00
00FF003F80
01F8000FC0
03E00003E0
07C00001F0
0F800000E0
0F00000040
1F00000000
1E00000000
3C00000000
3C00000000
3C00000000
7800000000
7800000000
7800000000
7800000000
7800000000
7800000000
7800000000
7800000000
3800000000
3C00000000
3C00000000
1E00000000
1E00000000
1F00000000
0F80000040
07C00000F0
07E00001F0
03F00007E0
01FC001FC0
007FC0FF80
003FFFFE00
000FFFF800
0001FFC000
ENDCHAR

STARTCHAR Eacute
ENCODING 201
SWIDTH 536 0
DWIDTH 27 0
BBX 23 46 3 0
BITMAP
0007C0
000F80
001F00
001E00
003C00
007800
00F000
000000
000000
000000
7FFFFC
7FFFFC
7FFFFC
7FFFFC
780000
780000
780000
780000
780000
780000
780000
780000
780000
780000
780000
7FFFFC
7FFFFC
7FFFFC
7FFFFC
780000
780000
780000
780000
780000
780000
780000
780000
780000
780000
780000
780000
780000
7FFFFC
7FFFFC
7FFFFC
7FFFFC
ENDCHAR

STARTCHAR Eogonek
ENCODING 202
SWIDTH 536 0
DWIDTH 27 0
BBX 24 45 3 -9
BITMAP
7FFFFC
7FFFFC
7FFFFC
7FFFFC
780000
780000
780000
780000
780000
780000
780000
780000
780000
780000
7FFFFC
7FFFFC
7FFFFC
7FFFFC
780000
780000
780000
780000
780000
780000
780000
780000
780000
780000
780000
780000
780000
780000
7FFFFC
7FFFFC
7FFFFC
7FFFFC
0000E0
0001C0
000180
000380
000380
000380
0001C0
0001FC
00007C
ENDCHAR

STARTCHAR Edieresis
ENCODING 203
SWIDTH 536 0
DWIDTH 27 0
BBX 24 44 3 0
BITMAP
0300C0
0781E0
0FC3F0
0FC3F0
0781E0
0300C0
000000
000000
7FFFFC
7FFFFC
7FFFFC
7FFFFC
780000
780000
780000
780000
780000
780000
780000
780000
780000
780000
780000
7FFFFC
7FFFFC
7FFFFC
7FFFFC
780000
780000
780000
780000
780000
780000
780000
780000
780000
780000
780000
780000
780000
7FFFFC
7FFFFC
7FFFFC
7FFFFC
ENDCHAR

STARTCHAR Edotaccent
ENCODING 204
SWIDTH 536 0
DWIDTH 27 0
BBX 23 44 3 0
BITMAP
003000
007800
00FC00
00FC00
007800
003000
000000
000000
7FFFF8
7FFFF8
7FFFF8
7FFFF8
780000
780000
780000
780000
780000
780000
780000
780000
780000
780000
780000
7FFFF8
7FFFF8
7FFFF8
7FFFF8
780000
780000
780000
780000
780000
780000
780000
780000
780000
780000
780000
780000
780000
7FFFF8
7FFFF8
7FFFF8
7FFFF8
ENDCHAR

STARTCHAR Iacute
ENCODING 205
SWIDTH 226 0
DWIDTH 11 0
BBX 13 47 1 0
BITMAP
01F0
03E0
07C0
0780
0F00
1E00
1C00
3800
0000
0000
0000
1E00
1E00
1E00
1E00
1E00
1E00
1E00
1E00
1E00
1E00
1E00
1E00
1E00
1E00
1E00
1E00
1E00
1E00
1E00
1E00
1E00
1E00
1E00
1E00
1E00
1E00
1E00
1E00
1E00
1E00
1E00
1E00
1E00
1E00
1E00
1E00
ENDCHAR

STARTCHAR Icircumflex
ENCODING 206
SWIDTH 226 0
DWIDTH 11 0
BBX 20 45 -4 0
BITMAP
00F800
01FC00
07FE00
0F9F00
1F0780
3C03C0
000000
000000
000000
00F000
00F000
00F000
00F000
00F000
00F000
00F000
00F000
00F000
00F000
00F000
00F000
00F000
00F000
00F000
00F000
00F000
00F000
00F000
00F000
00F000
00F000
00F000
00F000
00F000
00F000
00F000
00F000
00F000
00F000
00F000
00F000
00F000
00F000
00F000
00F000
ENDCHAR

STARTCHAR Imacron
ENCODING 207
SWIDTH 226 0
DWIDTH 11 0
BBX 20 44 -4 0
BITMAP
3FFFC0
3FFFC0
3FFFC0
000000
000000
000000
000000
000000
00F000
00F000
00F000
00F000
00F000
00F000
00F000
00F000
00F000
00F000
00F000
00F000
00F000
00F000
00F000
00F000
00F000
00F000
00F000
00F000
00F000
00F000
00F000
00F000
00F000
00F000
00F000
00F000
00F000
00F000
00F000
00F000
00F000
00F000
00F000
00F000
ENDCHAR

STARTCHAR Eth
ENCODING 208
SWIDTH 790 0
DWIDTH 40 0
BBX 39 36 -1 0
BITMAP
03FFFC0000
03FFFFE000
03FFFFF800
03FFFFFE00
038001FF00
0380003F80
0380000FC0
03800003E0
03800001E0
03800001F0
03800000F0
0380000078
0380000078
0380000078
038000003C
038000003C
038000003C
7FFFE0003C
7FFFE0003C
7FFFE0003C
038000003C
038000003C
038000003C
0380000038
0380000078
0380000078
03800000F8
03800000F0
03800001E0
03800003E0
0380000FC0
0380001F80
038001FF00
03FFFFFE00
03FFFFF800
03FFFFC000
ENDCHAR

STARTCHAR Ncommaaccent
ENCODING 209
SWIDTH 740 0
DWIDTH 37 0
BBX 30 46 4 -10
BITMAP
40000078
60000078
70000078
78000078
7C000078
7E000078
7E000078
7F000078
7F800078
7FC00078
7BE00078
79F00078
78F80078
78780078
783C0078
781E0078
781F0078
780F8078
7807C078
7803C078
7801E078
7800F078
7800F878
78007C78
78003E78
78001F78
78000F78
780007F8
780003F8
780003F8
780001F8
780000F8
78000078
78000038
78000018
78000008
00000000
00000000
00000000
00078000
00078000
00078000
00078000
00018000
00018000
00030000
ENDCHAR

STARTCHAR Omacron
ENCODING 210
SWIDTH 869 0
DWIDTH 43 0
BBX 40 45 2 -1
BITMAP
000FFFF000
000FFFF000
000FFFF000
0000000000
0000000000
0000000000
0000000000
0000FF0000
0007FFE000
001FFFF800
007FFFFE00
00FE007F00
01F8001F80
03E00007C0
07C00003E0
0F800001F0
0F000000F8
1E00000078
1E00000078
3C0000003C
3C0000003C
3C0000001C
380000001E
780000001E
780000001E
780000001E
780000001E
780000001E
780000001E
780000001E
3C0000001C
3C0000003C
3C0000003C
1E00000078
1E00000078
0F000000F0
0F800001F0
07C00003E0
03E00007C0
01F8001F80
00FE007F00
007FFFFE00
001FFFF800
0007FFE000
00007E0000
ENDCHAR

STARTCHAR Kcommaaccent
ENCODING 211
SWIDTH 591 0
DWIDTH 30 0
BBX 27 46 3 -10
BITMAP
78001E00
78007C00
7800F800
7801F000
7803E000
7807C000
780F8000
781F0000
783E0000
787C0000
78F80000
79F00000
7BE00000
7FC00000
7F000000
7E000000
7E000000
7F000000
7F800000
7FC00000
7BE00000
79F00000
78F80000
787C0000
783E0000
781E0000
780F0000
78078000
7807C000
7803E000
7801F000
7800F800
78007C00
78003E00
78001F00
78000F80
00000000
00000000
00000000
00780000
00780000
00780000
00780000
00180000
00180000
00300000
ENDCHAR

STARTCHAR Ocircumflex
ENCODING 212
SWIDTH 869 0
DWIDTH 43 0
BBX 40 46 2 -1
BITMAP
00003C0000
00007E0000
0000FF8000
0003E7C000
0007C3E000
000F80F000
0000000000
0000000000
00007E0000
0007FFE000
001FFFF800
007FFFFE00
00FE007F00
01F8001F80
03E00007C0
07C00003E0
0F800001F0
0F000000F0
1E00000078
1E00000078
3C0000003C
3C0000003C
3C0000001C
380000001E
780000001E
780000001E
780000001E
780000001E
780000001E
780000001E
780000001E
3C0000001C
3C0000003C
3C0000003C
1E00000078
1E00000078
0F000000F0
0F800001F0
07C00003E0
03E00007C0
01F8001F80
00FE007F00
007FFFFE00
001FFFF800
0007FFE000
00007E0000
ENDCHAR

STARTCHAR Otilde
ENCODING 213
SWIDTH 869 0
DWIDTH 43 0
BBX 40 45 2 -1
BITMAP
0003E00000
000FFC7000
001FFFF800
000E1FF000
000007C000
0000000000
0000000000
00007E0000
0007FFE000
001FFFF800
007FFFFE00
00FE007F00
01F8001F80
03E00007C0
07C00003E0
0F800001F0
0F000000F0
1E00000078
1E00000078
3C0000003C
3C0000003C
3C0000001C
380000001E
780000001E
780000001E
780000001E
780000001E
780000001E
780000001E
780000001E
3C0000001C
3C0000003C
3C0000003C
1E00000078
1E00000078
0F000000F0
0F800001F0
07C00003E0
03E00007C0
01F8001F80
00FE007F00
007FFFFE00
001FFFF800
0007FFE000
00007E0000
ENDCHAR

STARTCHAR Odieresis
ENCODING 214
SWIDTH 869 0
DWIDTH 43 0
BBX 40 46 2 -1
BITMAP
000300C000
000781E000
000FC3F000
000FC3F000
000781E000
000300C000
0000000000
0000000000
00007E0000
0007FFE000
001FFFF800
007FFFFE00
00FE007F00
01F8001F80
03E00007C0
07C00003E0
0F800001F0
0F000000F0
1E00000078
1E00000078
3C0000003C
3C0000003C
3C0000001C
380000001E
780000001E
780000001E
780000001E
780000001E
780000001E
780000001E
780000001E
3C0000001C
3C0000003C
3C0000003C
1E00000078
1E00000078
0F000000F0
0F800001F0
07C00003E0
03E00007C0
01F8001F80
00FE007F00
007FFFFE00
001FFFF800
0007FFE000
00007E0000
ENDCHAR

STARTCHAR multiply
ENCODING 215
SWIDTH 606 0
DWIDTH 30 0
BBX 24 20 3 8
BITMAP
180018
3C003C
3E007C
1F00F8
0F81F0
07C3E0
03E7C0
01FF80
00FF00
007E00
007E00
00FF00
01FF80
03E7C0
07C3E0
0F81F0
1F00F8
3E007C
3C003C
180018
ENDCHAR

STARTCHAR Oslash
ENCODING 216
SWIDTH 868 0
DWIDTH 43 0
BBX 40 39 2 -2
BITMAP
00007E0030
0007FFE078
001FFFF8F8
007FFFFEF0
00FE007FE0
01F8001FC0
03E00007C0
07C0000FE0
0F80001FF0
0F00003EF0
1E00003C78
1E00007878
3C0000F03C
3C0001E03C
3C0003E01C
380007C01E
780007801E
78000F001E
78001E001E
78003C001E
780078001E
7800F8001E
7801F0001E
3C01E0001C
3C03C0003C
3C0780003C
1E0F000078
1E1E000078
0F3E0000F0
0FFC0001F0
07F80003E0
03F00007C0
01F8001F80
03FE007F00
07FFFFFE00
0F9FFFF800
1F07FFE000
1E007E0000
0C00000000
ENDCHAR

STARTCHAR Uogonek
ENCODING 217
SWIDTH 655 0
DWIDTH 33 0
BBX 26 46 3 -10
BITMAP
78000780
78000780
78000780
78000780
78000780
78000780
78000780
78000780
78000780
78000780
78000780
78000780
78000780
78000780
78000780
78000780
78000780
78000780
78000780
78000780
78000780
78000780
78000780
78000780
78000780
78000780
78000780
78000700
38000F00
3C000F00
3C000F00
1E001E00
1F003C00
0FE1FC00
07FFF800
03FFE000
007F8000
000E0000
001C0000
00180000
00380000
00380000
00380000
001E0000
001FC000
0007C000
ENDCHAR

STARTCHAR Uacute
ENCODING 218
SWIDTH 655 0
DWIDTH 33 0
BBX 26 48 3 -1
BITMAP
0001F000
0003E000
0007C000
00078000
000F0000
001E0000
001C0000
00380000
00000000
00000000
00000000
78000780
78000780
78000780
78000780
78000780
78000780
78000780
78000780
78000780
78000780
78000780
78000780
78000780
78000780
78000780
78000780
78000780
78000780
78000780
78000780
78000780
78000780
78000780
78000780
78000780
78000780
78000780
38000700
3C000F00
3C000F00
3C000F00
1E001E00
1F003C00
0FE1FC00
07FFF800
01FFE000
007F8000
ENDCHAR

STARTCHAR Ucircumflex
ENCODING 219
SWIDTH 655 0
DWIDTH 33 0
BBX 26 46 3 -1
BITMAP
001E0000
003F8000
00FFC000
01F3E000
03E0F000
07807800
00000000
00000000
00000000
78000780
78000780
78000780
78000780
78000780
78000780
78000780
78000780
78000780
78000780
78000780
78000780
78000780
78000780
78000780
78000780
78000780
78000780
78000780
78000780
78000780
78000780
78000780
78000780
78000780
78000780
78000780
38000700
3C000F00
3C000F00
3C000F00
1E001E00
1F003C00
0FE1FC00
07FFF800
01FFE000
007F8000
ENDCHAR

STARTCHAR Udieresis
ENCODING 220
SWIDTH 655 0
DWIDTH 33 0
BBX 26 46 3 -1
BITMAP
01806000
03C0F000
07E1F800
07E1F800
03C0F000
01806000
00000000
00000000
00000000
78000780
78000780
78000780
78000780
78000780
78000780
78000780
78000780
78000780
78000780
78000780
78000780
78000780
78000780
78000780
78000780
78000780
78000780
78000780
78000780
78000780
78000780
78000780
78000780
78000780
78000780
78000780
38000700
38000700
3C000F00
3C000F00
1E001E00
1F003C00
0FE0FC00
07FFF800
01FFE000
007F8000
ENDCHAR

STARTCHAR Utilde
ENCODING 221
SWIDTH 655 0
DWIDTH 33 0
BBX 26 45 3 -1
BITMAP
01F80000
07FE1800
07FFFC00
070FF800
0003E000
00000000
00000000
00000000
78000780
78000780
78000780
78000780
78000780
78000780
78000780
78000780
78000780
78000780
78000780
78000780
78000780
78000780
78000780
78000780
78000780
78000780
78000780
78000780
78000780
78000780
78000780
78000780
78000780
78000780
78000780
38000700
3C000F00
3C000F00
1E001E00
1F003E00
0F807C00
07FFF800
03FFF000
00FFE000
003F0000
ENDCHAR

STARTCHAR Umacron
ENCODING 222
SWIDTH 655 0
DWIDTH 33 0
BBX 26 45 3 -1
BITMAP
07FFF800
07FFF800
07FFF800
00000000
00000000
00000000
00000000
00000000
78000780
78000780
78000780
78000780
78000780
78000780
78000780
78000780
78000780
78000780
78000780
78000780
78000780
78000780
78000780
78000780
78000780
78000780
78000780
78000780
78000780
78000780
78000780
78000780
78000780
78000780
78000780
38000700
3C000F00
3C000F00
3C000F00
1E001E00
1F003C00
0FE1FC00
07FFF800
01FFE000
007F8000
ENDCHAR

STARTCHAR germandbls
ENCODING 223
SWIDTH 554 0
DWIDTH 28 0
BBX 25 38 2 -1
BITMAP
00FF0000
03FFE000
07FFF000
0FC1F800
1F007800
1E003C00
3C003C00
3C001C00
3C001C00
38001C00
38003C00
38003C00
38007800
3800F800
3803F000
383FC000
383E0000
383F8000
383FE000
3803F000
3800F800
38007C00
38003C00
38001E00
38001E00
38000E00
38000E00
38000E00
38000E00
38000E00
38001E00
38001E00
38003C00
38007C00
38C1F800
38FFF000
38FFE000
007F0000
ENDCHAR

STARTCHAR amacron
ENCODING 224
SWIDTH 683 0
DWIDTH 34 0
BBX 31 37 1 -1
BITMAP
01FFFF00
01FFFF00
01FFFF00
00000000
00000000
00000000
00000000
00000000
0007C000
003FF838
00FFFC38
01FFFF38
03F01FB8
07C007B8
0F8003F8
0F0001F8
1E0000F8
1E000078
3C000078
3C000038
38000038
38000038
38000038
38000038
38000038
3C000038
3C000078
1C000078
1E000078
1E0000F8
0F0001F8
078003F8
07E007B8
03F83F38
00FFFE38
007FF838
000FE000
ENDCHAR

STARTCHAR aacute
ENCODING 225
SWIDTH 683 0
DWIDTH 34 0
BBX 31 41 1 -1
BITMAP
00007C00
0000F800
0000F000
0001E000
0003C000
00038000
00070000
000E0000
00000000
00000000
00000000
00000000
000FC000
003FF838
00FFFC38
01FFFF38
03F01FB8
07C007B8
0F8003F8
0F0001F8
1E0000F8
1E000078
3C000078
3C000038
38000038
38000038
38000038
38000038
38000038
3C000038
3C000078
1C000078
1E000078
1E0000F8
0F0001F8
078003F8
07E007B8
03F83F38
00FFFE38
007FF838
000FE000
ENDCHAR

STARTCHAR acircumflex
ENCODING 226
SWIDTH 683 0
DWIDTH 34 0
BBX 31 39 1 -1
BITMAP
0007C000
000FE000
001EF000
003C7800
00F83E00
01F01F00
00000000
00000000
00000000
00000000
000FC000
003FF838
00FFFC38
01FFFF38
03F01FB8
07C007B8
0F8003F8
0F0001F8
1E0000F8
1E000078
3C000078
3C000038
38000038
38000038
38000038
38000038
38000038
3C000038
3C000078
1C000078
1E000078
1E0000F8
0F0001F8
078003F8
07E007B8
03F83F38
00FFFE38
007FF838
000FE000
ENDCHAR

STARTCHAR atilde
ENCODING 227
SWIDTH 683 0
DWIDTH 34 0
BBX 31 38 1 -1
BITMAP
007E0000
01FF8600
01FFFF00
01C3FE00
0000F800
00000000
00000000
00000000
00000000
000FC000
003FF838
00FFFC38
01FFFF38
03F01FB8
07C007B8
0F8003F8
0F0001F8
1E0000F8
1E000078
3C000078
3C000038
38000038
38000038
38000038
38000038
38000038
3C000038
3C000078
1C000078
1E000078
1E0000F8
0F0001F8
078003F8
07E007B8
03F83F38
00FFFE38
007FF838
000FE000
ENDCHAR

STARTCHAR adieresis
ENCODING 228
SWIDTH 683 0
DWIDTH 34 0
BBX 32 39 0 -1
BITMAP
00300C00
00781F00
00FC3F00
00FC3F00
00781E00
00300C00
00000000
00000000
00000000
00000000
0007E000
003FFC1C
00FFFE1C
01FFFF1C
03F00FDC
07C003DC
0F8001FC
0F0000FC
1E00007C
1E00003C
3C00003C
3C00003C
3C00001C
3800001C
3800001C
3800001C
3C00001C
3C00001C
3C00003C
1C00003C
1E00003C
1F00007C
0F0000FC
07C001FC
03E007DC
01F81F9C
00FFFF1C
003FFC1C
000FF000
ENDCHAR

STARTCHAR aring
ENCODING 229
SWIDTH 683 0
DWIDTH 34 0
BBX 31 43 1 -1
BITMAP
00038000
000FE000
00183000
00101000
00301800
00301800
00301800
00181000
00183000
000FE000
00038000
00000000
00000000
00000000
0007C000
003FF838
00FFFE38
01FFFF38
03F00FB8
07C007B8
0F8001F8
0F0000F8
1E0000F8
1C000078
3C000078
3C000038
38000038
38000038
38000038
38000038
38000038
3C000038
3C000038
1C000078
1E000078
1E0000F8
0F0001F8
078003F8
07E007B8
03F83F38
00FFFE38
007FFC38
000FE000
ENDCHAR

STARTCHAR ae
ENCODING 230
SWIDTH 1157 0
DWIDTH 58 0
BBX 54 29 2 -1
BITMAP
001FE0001FE000
00FFF8707FFC00
01FFFC71FFFE00
03F87E73F83F00
07C00F77C00F80
0F8007FF8003C0
1F0003FF0001E0
1E0001FE0001E0
3C0000FC0000F0
3C0000FC0000F0
38000078000070
38000078000078
7800007FFFFFF8
7800007FFFFFF8
7800007FFFFFF8
78000078000000
78000078000000
38000078000000
38000078000000
3C0000FC000000
3C0000FC000060
1E0001FE0000F0
1F0001FF0001E0
0F8007FF8003E0
07C00F77C007C0
03F03E73F83F80
01FFFC71FFFE00
007FF8707FFC00
001FC0001FE000
ENDCHAR

STARTCHAR iogonek
ENCODING 231
SWIDTH 200 0
DWIDTH 10 0
BBX 11 47 0 -9
BITMAP
0C00
1E00
3F00
3F00
1E00
0C00
0000
0000
0000
0000
0000
0E00
0E00
0E00
0E00
0E00
0E00
0E00
0E00
0E00
0E00
0E00
0E00
0E00
0E00
0E00
0E00
0E00
0E00
0E00
0E00
0E00
0E00
0E00
0E00
0E00
0E00
0E00
1C00
3800
3800
7000
7000
7000
3C00
3F80
0F80
ENDCHAR

STARTCHAR ccaron
ENCODING 232
SWIDTH 647 0
DWIDTH 32 0
BBX 30 40 1 -1
BITMAP
00F007C0
007C0F80
003E1E00
001F3C00
000FF800
0003F000
0001E000
00000000
00000000
00000000
00000000
000FF800
003FFF00
00FFFF80
01FC0FE0
03E003F0
078000F0
0F000078
0F000020
1E000000
1C000000
3C000000
3C000000
38000000
38000000
38000000
38000000
3C000000
3C000000
3C000000
1C000000
1E000000
1F000020
0F000070
07C000F0
03E003F0
01FC0FE0
00FFFF80
003FFF00
000FF800
ENDCHAR

STARTCHAR eacute
ENCODING 233
SWIDTH 650 0
DWIDTH 32 0
BBX 30 41 1 -1
BITMAP
0000FC00
0000F800
0001F000
0003E000
0003C000
00078000
000F0000
000E0000
00000000
00000000
00000000
00000000
001FE000
007FFC00
01FFFE00
03F87F00
07C00F80
0F8007C0
0F0001E0
1E0001E0
1E0000F0
3C0000F0
3C000070
38000078
7FFFFFF8
7FFFFFF8
7FFFFFF8
78000000
78000000
38000000
38000000
3C000000
3C0000E0
1E0000F0
1F0001E0
0F8003C0
07C00FC0
03F03F80
01FFFE00
007FFC00
001FE000
ENDCHAR

STARTCHAR eogonek
ENCODING 234
SWIDTH 650 0
DWIDTH 32 0
BBX 30 38 2 -10
BITMAP
001FE000
00FFF800
01FFFE00
03F87F00
07C00F80
0F8007C0
1F0003C0
1E0001E0
3C0001E0
3C0000F0
380000F0
78000070
7FFFFFF0
7FFFFFF0
7FFFFFF0
78000000
78000000
78000000
78000000
38000000
3C0000E0
1E0001E0
1E0003E0
0F0007C0
07C00F80
07F03F00
01FFFE00
00FFFC00
001FE000
00038000
00070000
00060000
000E0000
000E0000
000E0000
00078000
0007F000
0001F000
ENDCHAR

STARTCHAR edieresis
ENCODING 235
SWIDTH 650 0
DWIDTH 32 0
BBX 30 39 1 -1
BITMAP
00601800
00F03C00
01F87E00
01F87E00
00F03C00
00601800
00000000
00000000
00000000
00000000
001FE000
007FFC00
01FFFE00
03F87F00
07C00F80
0F8007C0
0F0003E0
1E0001E0
1E0000F0
3C0000F0
3C000070
38000078
7FFFFFF8
7FFFFFF8
7FFFFFF8
78000000
78000000
38000000
38000000
3C000000
3C0000E0
1E0000F0
1F0001E0
0F8003C0
07C00FC0
03F03F80
01FFFE00
007FFC00
001FE000
ENDCHAR

STARTCHAR edotaccent
ENCODING 236
SWIDTH 650 0
DWIDTH 32 0
BBX 30 39 1 -1
BITMAP
00030000
00078000
000FC000
000FC000
00078000
00030000
00000000
00000000
00000000
00000000
001FE000
007FFC00
01FFFE00
03F87F00
07C00F80
0F8007C0
0F0001E0
1E0001E0
1E0000F0
3C0000F0
3C000070
38000078
7FFFFFF8
7FFFFFF8
7FFFFFF8
78000000
78000000
38000000
38000000
3C000000
3C0000E0
1E0000F0
1F0001E0
0F8003C0
07C00FC0
03F03F80
01FFFE00
007FFC00
001FE000
ENDCHAR

STARTCHAR iacute
ENCODING 237
SWIDTH 200 0
DWIDTH 10 0
BBX 14 40 0 0
BITMAP
01F0
01E0
03E0
07C0
0F80
0F00
1E00
3C00
0000
0000
0000
0000
0000
0E00
0E00
0E00
0E00
0E00
0E00
0E00
0E00
0E00
0E00
0E00
0E00
0E00
0E00
0E00
0E00
0E00
0E00
0E00
0E00
0E00
0E00
0E00
0E00
0E00
0E00
0E00
ENDCHAR

STARTCHAR icircumflex
ENCODING 238
SWIDTH 200 0
DWIDTH 10 0
BBX 21 38 -5 0
BITMAP
00F800
01FC00
03FE00
078F00
0F07C0
3E03E0
000000
000000
000000
000000
000000
007000
007000
007000
007000
007000
007000
007000
007000
007000
007000
007000
007000
007000
007000
007000
007000
007000
007000
007000
007000
007000
007000
007000
007000
007000
007000
007000
ENDCHAR

STARTCHAR imacron
ENCODING 239
SWIDTH 200 0
DWIDTH 10 0
BBX 19 36 -4 0
BITMAP
7FFFC0
7FFFC0
7FFFC0
000000
000000
000000
000000
000000
000000
00E000
00E000
00E000
00E000
00E000
00E000
00E000
00E000
00E000
00E000
00E000
00E000
00E000
00E000
00E000
00E000
00E000
00E000
00E000
00E000
00E000
00E000
00E000
00E000
00E000
00E000
00E000
ENDCHAR

STARTCHAR dcroat
ENCODING 240
SWIDTH 685 0
DWIDTH 34 0
BBX 35 38 1 -1
BITMAP
0000003800
0000003800
0000003800
0000003800
00003FFF80
00003FFF80
00003FFF80
0000003800
0000003800
000FE03800
007FFC3800
00FFFE3800
03F83F3800
07E007B800
078003F800
0F0001F800
1F0000F800
1E0000F800
1C00007800
3C00007800
3C00003800
3800003800
3800003800
3800003800
3800003800
3800003800
3C00003800
3C00007800
1C00007800
1E00007800
1F0000F800
0F0001F800
078003F800
03E007B800
01F83F3800
00FFFE3800
007FF83800
000FE00000
ENDCHAR

STARTCHAR ncommaaccent
ENCODING 241
SWIDTH 610 0
DWIDTH 31 0
BBX 27 38 2 -10
BITMAP
001FE000
387FF800
38FFFC00
39F07E00
3BC01F00
3F000F00
3F000700
3E000780
3C000780
3C000380
3C000380
38000380
38000380
38000380
38000380
38000380
38000380
38000380
38000380
38000380
38000380
38000380
38000380
38000380
38000380
38000380
38000380
38000380
00000000
00000000
00000000
001E0000
001E0000
001E0000
001E0000
00060000
00060000
000C0000
ENDCHAR

STARTCHAR omacron
ENCODING 242
SWIDTH 655 0
DWIDTH 33 0
BBX 31 37 1 -1
BITMAP
01FFFF00
01FFFF00
01FFFF00
00000000
00000000
00000000
00000000
00000000
000FE000
003FFC00
00FFFE00
01F83F80
03E00FC0
078003C0
0F0001E0
0F0000F0
1E0000F0
1C000078
3C000078
3C000078
38000038
38000038
38000038
38000038
38000038
3C000038
3C000078
1C000070
1E0000F0
1E0000F0
0F0001E0
078003C0
07E00FC0
03F83F80
00FFFE00
007FFC00
000FE000
ENDCHAR

STARTCHAR kcommaaccent
ENCODING 243
SWIDTH 502 0
DWIDTH 25 0
BBX 25 47 2 -10
BITMAP
38000000
38000000
38000000
38000000
38000000
38000000
38000000
38000000
38000000
38000000
38007C00
3800F800
3801F000
3803E000
3807C000
380F8000
383F0000
387C0000
38F80000
39F00000
3BE00000
3FC00000
3F800000
3F800000
3FC00000
3BE00000
39F00000
38F80000
387C0000
381F0000
380F8000
3807C000
3803E000
3801F000
3800F800
38007C00
38003E00
00000000
00000000
00000000
00780000
00780000
00780000
00780000
00180000
00180000
00100000
ENDCHAR

STARTCHAR ocircumflex
ENCODING 244
SWIDTH 655 0
DWIDTH 33 0
BBX 31 40 1 -1
BITMAP
00038000
0007C000
000FF000
003EF800
007C7C00
00F81E00
01E00F00
00000000
00000000
00000000
00000000
000FF000
007FFC00
00FFFE00
03F83F80
07E00FC0
078003C0
0F0001E0
1F0000F0
1E0000F0
1C000078
3C000078
3C000078
38000038
38000038
38000038
38000038
38000038
3C000038
3C000078
1C000070
1E0000F0
1E0000F0
0F0001E0
078003C0
07E00FC0
03F83F80
00FFFE00
007FFC00
000FE000
ENDCHAR

STARTCHAR otilde
ENCODING 245
SWIDTH 655 0
DWIDTH 33 0
BBX 31 39 1 -1
BITMAP
007E0000
00FF8600
01FFFF00
01C3FF00
0080FC00
00000000
00000000
00000000
00000000
00000000
000FF000
007FFC00
00FFFE00
03F83F80
07E00FC0
078003C0
0F0001E0
1F0000F0
1E0000F0
1C000078
3C000078
3C000078
38000038
38000038
38000038
38000038
38000038
3C000038
3C000078
1C000070
1E0000F0
1E0000F0
0F0001E0
078003C0
07E00FC0
03F83F80
00FFFE00
007FFC00
000FE000
ENDCHAR

STARTCHAR odieresis
ENCODING 246
SWIDTH 655 0
DWIDTH 33 0
BBX 32 39 0 -1
BITMAP
00300C00
00781F00
00FC3F00
00FC3F00
00F81F00
00300C00
00000000
00000000
00000000
00000000
000FF000
003FFE00
00FFFF00
01FC3FC0
03E007E0
07C003E0
0F8001F0
0F0000F8
1E000078
1E000038
3C00003C
3C00003C
3C00003C
3800001C
3800001C
3800001C
3C00001C
3C00003C
3C00003C
1C000038
1E000078
0F0000F8
0F0000F0
07C001E0
03E007C0
01FC3F80
00FFFF00
003FFE00
000FF000
ENDCHAR

STARTCHAR divide
ENCODING 247
SWIDTH 606 0
DWIDTH 30 0
BBX 27 23 2 6
BITMAP
001F0000
001F0000
001F0000
001F0000
001F0000
00000000
00000000
00000000
00000000
00000000
7FFFFFC0
7FFFFFC0
7FFFFFC0
00000000
00000000
00000000
00000000
00000000
001F0000
001F0000
001F0000
001F0000
001F0000
ENDCHAR

STARTCHAR oslash
ENCODING 248
SWIDTH 653 0
DWIDTH 33 0
BBX 31 30 1 -2
BITMAP
001FF030
007FFC78
00FFFFF0
03F83FE0
07E00FC0
078003E0
0F0007E0
1F000FF0
1E000EF0
1C001C70
3C003C78
3C007878
3800F038
3800E038
3801C038
3803C038
38078038
3C0F0038
3C1E0078
1C1C0078
1E3C00F0
1E7800F0
0FF001E0
07E003C0
07E00FC0
03F83F80
07FFFE00
0F7FFC00
1E1FE000
0C000000
ENDCHAR

STARTCHAR uogonek
ENCODING 249
SWIDTH 608 0
DWIDTH 30 0
BBX 26 37 2 -10
BITMAP
38000780
38000780
38000780
38000780
38000780
38000780
38000780
38000780
38000780
38000780
38000780
38000780
38000780
38000780
38000780
38000780
38000780
38000780
3C000780
3C000700
1C000F00
1E000F00
1F001E00
0F803E00
07E0FC00
03FFF800
01FFF000
007FC000
000E0000
001C0000
00180000
00380000
00380000
00380000
001C0000
001FC000
0007C000
ENDCHAR

STARTCHAR uacute
ENCODING 250
SWIDTH 608 0
DWIDTH 30 0
BBX 26 41 2 -1
BITMAP
0001F000
0003E000
0003C000
00078000
000F0000
001E0000
001C0000
003C0000
00000000
00000000
00000000
00000000
00000000
38000780
38000780
38000780
38000780
38000780
38000780
38000780
38000780
38000780
38000780
38000780
38000780
38000780
38000780
38000780
38000780
38000780
38000780
3C000700
3C000700
1C000F00
1E000F00
1F001E00
0F803E00
07E0FC00
03FFF800
01FFF000
007FC000
ENDCHAR

STARTCHAR ucircumflex
ENCODING 251
SWIDTH 608 0
DWIDTH 30 0
BBX 26 39 2 -1
BITMAP
001F0000
003F8000
007BC000
00F1E000
03E0F000
07C07800
00000000
00000000
00000000
00000000
00000000
38000780
38000780
38000780
38000780
38000780
38000780
38000780
38000780
38000780
38000780
38000780
38000780
38000780
38000780
38000780
38000780
38000780
38000780
3C000700
3C000700
1C000F00
1E000F00
1F001E00
0F803E00
07E0FC00
03FFF800
01FFF000
007FC000
ENDCHAR

STARTCHAR udieresis
ENCODING 252
SWIDTH 608 0
DWIDTH 30 0
BBX 26 38 2 -1
BITMAP
01806000
03C0F000
07E1F800
07E1F800
03C0F000
00806000
00000000
00000000
00000000
00000000
38000780
38000780
38000780
38000780
38000780
38000780
38000780
38000780
38000780
38000780
38000780
38000780
38000780
38000780
38000780
38000780
38000780
38000780
38000700
3C000700
1C000F00
1E000F00
1E001E00
0F803E00
07E1FC00
07FFF800
01FFF000
007F8000
ENDCHAR

STARTCHAR utilde
ENCODING 253
SWIDTH 608 0
DWIDTH 30 0
BBX 26 38 2 -1
BITMAP
01F80000
07FE1800
0FFFFC00
070FFC00
0003F000
00000000
00000000
00000000
00000000
00000000
78000780
78000780
78000780
78000780
78000780
78000780
78000780
78000780
78000780
78000780
78000780
78000780
78000780
78000780
78000780
78000780
78000780
78000780
38000700
38000700
3C000F00
3C000F00
1E001E00
1F003E00
0FE1FC00
07FFF800
03FFF000
007F8000
ENDCHAR

STARTCHAR umacron
ENCODING 254
SWIDTH 608 0
DWIDTH 30 0
BBX 26 37 2 -1
BITMAP
07FFFC00
07FFFC00
07FFFC00
00000000
00000000
00000000
00000000
00000000
00000000
38000780
38000780
38000780
38000780
38000780
38000780
38000780
38000780
38000780
38000780
38000780
38000780
38000780
38000780
38000780
38000780
38000780
38000780
3C000700
3C000700
1C000F00
1E000F00
1F001E00
0F803E00
07E0FC00
03FFF800
01FFF000
007FC000
ENDCHAR

STARTCHAR dotaccent
ENCODING 255
SWIDTH 222 0
DWIDTH 11 0
BBX 8 6 2 31
BITMAP
18
3C
7E
7E
3C
18
ENDCHAR
ENDFONT
